<?xml version="1.0" encoding="UTF-8"?>
<svg version="1.1" xmlns="http://www.w3.org/2000/svg" width="1024" height="1024">
<path d="M0 0 C337.92 0 675.84 0 1024 0 C1024 337.92 1024 675.84 1024 1024 C686.08 1024 348.16 1024 0 1024 C0 686.08 0 348.16 0 0 Z " fill="#FEFEFE" transform="translate(0,0)"/>
<path d="M0 0 C1.88781296 -0.00302297 3.77562469 -0.00691319 5.66343427 -0.01159257 C10.83575418 -0.02186261 16.0080047 -0.01969325 21.18033028 -0.01541197 C26.76466746 -0.01294293 32.34898801 -0.02196117 37.93331909 -0.02944946 C48.86815127 -0.04219385 59.80295888 -0.04399045 70.73779723 -0.0416492 C79.62760216 -0.03986547 88.51739964 -0.04161687 97.40720367 -0.04587364 C98.6729221 -0.04646883 99.93864053 -0.04706402 101.24271406 -0.04767724 C103.81412449 -0.04888901 106.38553491 -0.05010315 108.95694533 -0.05131962 C126.22046738 -0.05910585 143.48398585 -0.0630267 160.747509 -0.05900288 C161.75961417 -0.05876831 161.75961417 -0.05876831 162.79216591 -0.05852901 C166.21176575 -0.05772326 169.63136558 -0.05687749 173.0509654 -0.05601571 C174.06962471 -0.05575908 174.06962471 -0.05575908 175.10886299 -0.05549726 C176.48218024 -0.0551506 177.85549748 -0.05480207 179.22881472 -0.05445167 C200.59211433 -0.04909586 221.95537265 -0.05702215 243.31866455 -0.07548523 C267.33797618 -0.09621959 291.35725874 -0.10689405 315.37658238 -0.10290974 C328.08770658 -0.10099822 340.79879316 -0.10348045 353.50991058 -0.11762428 C364.33198986 -0.12954443 375.15400838 -0.13093587 385.97608849 -0.11883412 C391.49475804 -0.11294972 397.01331649 -0.11183392 402.53197861 -0.12383652 C407.59020587 -0.1347096 412.64822948 -0.13157491 417.70644727 -0.11757483 C419.53007304 -0.11493183 421.35371485 -0.11728189 423.17732486 -0.1253107 C447.36048654 -0.22433763 468.03865382 5.70054612 486.00421143 22.67085266 C501.75832587 38.99113059 507.14693554 59.60214155 507.00541687 81.56672668 C507.00931867 83.26427979 507.0149661 84.96182962 507.02218777 86.65937185 C507.03683424 91.28268779 507.02682608 95.90565938 507.01245105 100.5289638 C507.00128315 105.53109517 507.01330301 110.5331805 507.02229309 115.53530884 C507.03618811 125.31812604 507.02869703 135.1008137 507.01361751 144.88362467 C506.99671064 156.2884175 506.99997358 167.69317847 507.00371159 179.09797996 C507.00958333 199.45416544 506.99544554 219.81028897 506.97076416 240.16645813 C506.94684544 259.89597394 506.93976081 279.62540699 506.95025635 299.35493469 C506.96167898 320.86559584 506.96357899 342.37621875 506.94915825 363.88687944 C506.94763249 366.18285656 506.94611214 368.47883367 506.94459724 370.77481079 C506.94383943 371.90432461 506.94308162 373.03383844 506.94230084 374.19757995 C506.93756841 382.13762583 506.93940205 390.07765458 506.94366264 398.0177002 C506.94860154 407.70071806 506.9425505 417.38365786 506.92276835 427.0666579 C506.91293183 432.0022073 506.90775171 436.93763811 506.91566086 441.87319374 C506.92276568 446.39960445 506.91580191 450.92577686 506.89805723 455.45215636 C506.89404363 457.0811655 506.89496002 458.71019669 506.90157609 460.33919734 C506.98757074 483.5133501 501.16360233 503.62402264 484.93780518 520.91694641 C467.15411319 538.0440976 445.94397536 542.89808742 422.16627502 542.76190186 C420.26019397 542.76580289 418.35411584 542.77144973 416.44804448 542.77867275 C411.25306115 542.79332963 406.05838396 542.78330469 400.86341083 542.76893604 C395.24442602 542.75777445 389.62548235 542.76978584 384.00650024 542.77877808 C373.01664383 542.79267651 362.0269027 542.78517985 351.03705183 542.77010249 C338.22969596 542.75320331 325.4223685 542.75645751 312.61500492 542.76019657 C289.07045881 542.76624599 265.525987 542.75049702 241.98145915 542.72500894 C220.50977596 542.70188795 199.03816012 542.69650991 177.56646729 542.70674133 C172.06555592 542.70934357 166.56464455 542.71192865 161.0637331 542.71433926 C160.04773666 542.71478543 160.04773666 542.71478543 159.01121504 542.71524061 C141.0410832 542.72286235 123.0709589 542.71637819 105.10082883 542.70564324 C102.52405401 542.70411745 99.9472792 542.70259709 97.37050438 542.70108223 C95.46894572 542.69994551 95.46894572 542.69994551 93.52897174 542.69878582 C84.60763547 542.6940488 75.68631444 542.69589025 66.76497841 542.70014763 C55.89103858 542.70508015 45.01716834 542.6990635 34.14324442 542.67925333 C28.5983347 542.66939951 23.05353082 542.66425568 17.50861549 542.67214584 C12.42784877 542.67922753 7.34729514 542.67233996 2.2665564 542.65454222 C0.43371052 542.6505139 -1.39915494 542.65147026 -3.2319934 542.65806108 C-16.43888129 542.70146926 -28.79189076 541.88092118 -40.68328857 535.51069641 C-41.3569043 535.15999084 -42.03052002 534.80928528 -42.72454834 534.44795227 C-60.97338639 524.75592286 -73.38566932 510.85696979 -80.52313232 491.49116516 C-83.47436244 481.68928842 -83.7818685 472.64733462 -83.75648499 462.51087952 C-83.75950791 460.80058318 -83.76339811 459.09028819 -83.76807755 457.37999558 C-83.77834821 452.69375118 -83.77617809 448.00758336 -83.77189696 443.32133269 C-83.76942802 438.26188189 -83.77844604 433.20244944 -83.78593445 428.14300537 C-83.79867923 418.23574746 -83.80047537 408.32851665 -83.79813419 398.42125192 C-83.79635046 390.36665461 -83.79810185 382.31206551 -83.80235863 374.25746918 C-83.80325141 372.53726602 -83.80325141 372.53726602 -83.80416223 370.78231128 C-83.805374 368.45248459 -83.80658813 366.1226579 -83.80780461 363.79283121 C-83.8186795 341.94640106 -83.81651801 320.09998635 -83.81041976 298.25355533 C-83.80525185 278.27809036 -83.81650283 258.30267418 -83.83551798 238.32721886 C-83.85490167 217.80697136 -83.86315137 197.28674693 -83.85939473 176.76649022 C-83.85748334 165.24977974 -83.85996413 153.73311078 -83.87410927 142.21640778 C-83.88603085 132.41096054 -83.88741927 122.60558036 -83.8753191 112.80013219 C-83.86943564 107.80005762 -83.86831627 102.80010565 -83.8803215 97.80003929 C-83.89119784 93.21675899 -83.88805612 88.63370341 -83.87405982 84.05043355 C-83.87141769 82.39839617 -83.8737641 80.74634107 -83.88179568 79.0943211 C-83.93894577 66.45494979 -82.85367053 54.48013534 -76.80828857 43.13569641 C-76.28500977 42.12914001 -76.28500977 42.12914001 -75.75115967 41.10224915 C-65.93545348 22.68072062 -51.35837996 10.65500255 -31.85906982 3.26850891 C-21.24367018 0.08758776 -10.99012127 -0.02493689 0 0 Z " fill="#FDFDFD" transform="translate(300.49578857421875,248.7393035888672)"/>
<path d="M0 0 C3.52497872 2.88959854 6.91504818 5.90599409 10.2578125 9.00390625 C12.13685778 10.71869932 14.04723494 12.29730319 16.0546875 13.85546875 C18.60612686 16.14522202 18.8957814 16.84650008 19.4921875 20.04296875 C17.57578846 21.81409238 15.65905436 23.58485154 13.7421875 25.35546875 C13.15526123 25.89800293 12.56833496 26.44053711 11.96362305 26.99951172 C9.08778117 29.65573824 6.20770535 32.30667257 3.30859375 34.9375 C-2.36048275 40.08705572 -7.86420453 45.35644954 -13.2421875 50.8125 C-15.28536351 52.82397156 -17.37534487 54.70044511 -19.5703125 56.54296875 C-22.50411393 58.70949321 -22.50411393 58.70949321 -23.5078125 61.04296875 C-24.1678125 61.04296875 -24.8278125 61.04296875 -25.5078125 61.04296875 C-25.76216064 61.62401367 -26.01650879 62.20505859 -26.27856445 62.80371094 C-27.64054745 65.28476517 -29.1509569 66.89814978 -31.17578125 68.87109375 C-31.90474609 69.58910156 -32.63371094 70.30710937 -33.38476562 71.046875 C-34.14724609 71.78808594 -34.90972656 72.52929688 -35.6953125 73.29296875 C-41.21891616 78.68722523 -46.50720797 84.15900792 -51.5078125 90.04296875 C-52.46987667 91.16030731 -53.43210839 92.27750164 -54.39453125 93.39453125 C-55.32841325 94.48543039 -56.26200132 95.57658121 -57.1953125 96.66796875 C-57.69933594 97.25553955 -58.20335937 97.84311035 -58.72265625 98.44848633 C-61.43031099 101.60643947 -64.12692982 104.77306363 -66.80859375 107.953125 C-67.34460205 108.58589355 -67.88061035 109.21866211 -68.43286133 109.87060547 C-69.45829894 111.08154699 -70.48045037 112.29528145 -71.4987793 113.51220703 C-73.95786368 116.40948947 -76.33857766 118.92765399 -79.5078125 121.04296875 C-79.5078125 119.39296875 -79.5078125 117.74296875 -79.5078125 116.04296875 C-80.136875 116.44128906 -80.7659375 116.83960938 -81.4140625 117.25 C-90.68678438 122.9895914 -98.65867374 125.70963346 -109.5078125 127.04296875 C-110.39082031 127.17574219 -111.27382813 127.30851563 -112.18359375 127.4453125 C-116.32084753 127.8120675 -118.61406451 127.64102069 -122.12890625 125.2890625 C-124.40565823 123.30356428 -126.51855496 121.31571951 -128.5078125 119.04296875 C-128.5078125 118.71296875 -128.5078125 118.38296875 -128.5078125 118.04296875 C-126.74630859 118.00429688 -126.74630859 118.00429688 -124.94921875 117.96484375 C-110.76946079 117.51852908 -92.97795758 116.87785294 -82.0078125 106.73046875 C-80.10912244 103.32864905 -80.20701281 100.87816476 -80.5078125 97.04296875 C-81.20390625 97.64882813 -81.9 98.2546875 -82.6171875 98.87890625 C-85.61394804 101.12242698 -88.26173556 102.35905106 -91.7578125 103.66796875 C-92.81484375 104.07273437 -93.871875 104.4775 -94.9609375 104.89453125 C-103.5534081 107.67667482 -111.34945865 108.35562785 -120.3828125 108.29296875 C-121.49011719 108.30070313 -122.59742188 108.3084375 -123.73828125 108.31640625 C-134.18698767 108.29184995 -143.3932828 107.95975271 -151.7578125 101.23046875 C-152.31726563 100.80443359 -152.87671875 100.37839844 -153.453125 99.93945312 C-154.57250499 99.08702205 -155.68658993 98.22758698 -156.79492188 97.36083984 C-159.64032127 95.17163433 -162.57640033 93.11504563 -165.5078125 91.04296875 C-168.53607051 92.44389383 -171.03816128 94.101717 -173.66015625 96.16015625 C-174.43681641 96.76730469 -175.21347656 97.37445313 -176.01367188 98 C-176.81611328 98.63292969 -177.61855469 99.26585937 -178.4453125 99.91796875 C-179.64317383 100.85576172 -179.64317383 100.85576172 -180.86523438 101.8125 C-184.76344063 104.86776356 -188.64787566 107.93942358 -192.5078125 111.04296875 C-191.1952871 113.98011067 -189.83578109 115.92195933 -187.453125 118.07421875 C-186.843479 118.63165771 -186.23383301 119.18909668 -185.60571289 119.76342773 C-184.95465576 120.35067627 -184.30359863 120.9379248 -183.6328125 121.54296875 C-182.27890691 122.79314439 -180.92605864 124.04446596 -179.57421875 125.296875 C-177.59706845 127.12110692 -175.61796869 128.94271488 -173.62841797 130.75341797 C-171.92522164 132.31184027 -170.24595583 133.89253127 -168.5703125 135.48046875 C-168.05678223 135.939375 -167.54325195 136.39828125 -167.01416016 136.87109375 C-164.2256603 139.55423954 -163.52413107 140.79896723 -163.26171875 144.72265625 C-163.34292969 145.81835938 -163.42414063 146.9140625 -163.5078125 148.04296875 C-161.58199793 152.64352577 -158.85896405 154.7119947 -154.5078125 157.04296875 C-152.76226734 157.43818652 -151.01163222 157.81125965 -149.2578125 158.16796875 C-142.19895752 159.87216419 -138.02296104 164.57777811 -133.5078125 170.04296875 C-133.5078125 170.37296875 -133.5078125 170.70296875 -133.5078125 171.04296875 C-143.56962637 170.84354541 -154.74470947 169.02229696 -162.5078125 162.04296875 C-162.5078125 161.38296875 -162.5078125 160.72296875 -162.5078125 160.04296875 C-163.1678125 160.04296875 -163.8278125 160.04296875 -164.5078125 160.04296875 C-164.24048862 165.7909451 -164.24048862 165.7909451 -161.5703125 170.73046875 C-151.75062372 178.14533579 -141.9224692 180.16258315 -129.875 180.69921875 C-122.62134789 181.4397308 -119.17530406 183.70869268 -114.5078125 189.04296875 C-114.5078125 189.70296875 -114.5078125 190.36296875 -114.5078125 191.04296875 C-130.73535301 191.69063112 -147.3707632 191.03319632 -161.5078125 182.04296875 C-161.8378125 181.71296875 -162.1678125 181.38296875 -162.5078125 181.04296875 C-162.97378817 184.9571644 -162.68533872 186.74709171 -160.6328125 190.16796875 C-153.06784416 198.12781182 -138.94869303 199.40538522 -128.5078125 200.04296875 C-126.39596129 199.98509159 -124.28484213 199.89252528 -122.17578125 199.76953125 C-104.42745289 198.76760949 -104.42745289 198.76760949 -99.02734375 202.92578125 C-95.74070256 205.99450476 -93.05993184 209.34924533 -90.5078125 213.04296875 C-87.2402079 209.97199053 -85.26247753 206.34899527 -83.0703125 202.48046875 C-67.67035054 175.94938675 -67.67035054 175.94938675 -55.5078125 166.04296875 C-54.05252058 164.62348366 -52.61412868 163.18641283 -51.1953125 161.73046875 C-48.44825541 158.93883466 -45.64809857 156.3981833 -42.5078125 154.04296875 C-39.2251193 155.53373309 -36.57703809 157.42917196 -33.7578125 159.66796875 C-32.95859375 160.29960937 -32.159375 160.93125 -31.3359375 161.58203125 C-30.73265625 162.06414062 -30.129375 162.54625 -29.5078125 163.04296875 C-24.68135672 159.89099763 -21.1183221 156.63703539 -17.40234375 152.25 C-15.26823723 149.76387591 -13.07737116 147.3557367 -10.8203125 144.98046875 C-10.09457031 144.20574219 -9.36882812 143.43101562 -8.62109375 142.6328125 C-6.5078125 141.04296875 -6.5078125 141.04296875 -4.23828125 141.296875 C-3.66722656 141.54308594 -3.09617187 141.78929687 -2.5078125 142.04296875 C-2.5078125 142.70296875 -2.5078125 143.36296875 -2.5078125 144.04296875 C-1.5178125 144.04296875 -0.5278125 144.04296875 0.4921875 144.04296875 C0.4921875 139.09296875 0.4921875 134.14296875 0.4921875 129.04296875 C-4.4578125 129.37296875 -9.4078125 129.70296875 -14.5078125 130.04296875 C-14.5078125 130.70296875 -14.5078125 131.36296875 -14.5078125 132.04296875 C-12.8578125 132.70296875 -11.2078125 133.36296875 -9.5078125 134.04296875 C-10.96526674 137.40632469 -12.81899104 139.5883088 -15.421875 142.15234375 C-16.18242188 142.90644531 -16.94296875 143.66054688 -17.7265625 144.4375 C-18.520625 145.21480469 -19.3146875 145.99210938 -20.1328125 146.79296875 C-20.93460938 147.58574219 -21.73640625 148.37851562 -22.5625 149.1953125 C-24.53984096 151.14911368 -26.52170159 153.09808978 -28.5078125 155.04296875 C-29.7905621 154.09447264 -31.07145478 153.14346488 -32.3515625 152.19140625 C-33.06505859 151.66208496 -33.77855469 151.13276367 -34.51367188 150.58740234 C-36.69759107 148.89598794 -38.63453908 147.07234829 -40.5078125 145.04296875 C-42.9828125 146.03296875 -42.9828125 146.03296875 -45.5078125 147.04296875 C-43.8831084 141.99053525 -40.87405222 138.13438055 -37.7578125 133.91796875 C-37.18361572 133.13317139 -36.60941895 132.34837402 -36.01782227 131.53979492 C-34.80151472 129.87912749 -33.58278876 128.22022902 -32.36181641 126.56298828 C-30.5517752 124.10272422 -28.75307591 121.6345565 -26.95703125 119.1640625 C-20.17179478 109.85662951 -13.18641284 100.76063455 -5.93261719 91.81494141 C-4.03630637 89.45657542 -2.17731357 87.07016655 -0.31860352 84.68212891 C4.16598664 78.92112473 8.76282712 73.28068371 13.50585938 67.73046875 C16.40844697 64.33373534 19.24824118 60.89520013 22.0546875 57.41796875 C26.65565741 51.75844236 31.53643922 46.39186617 36.4921875 41.04296875 C39.98844532 45.04536634 42.222912 49.13842652 44.4296875 53.91796875 C44.77741211 54.67045898 45.12513672 55.42294922 45.48339844 56.19824219 C58.10888417 84.0634043 61.0004543 114.14561812 54.4921875 144.04296875 C54.21375 145.33074219 53.9353125 146.61851562 53.6484375 147.9453125 C47.62842248 172.67408111 34.89057639 193.60678122 17.4921875 212.04296875 C16.81929687 212.7803125 16.14640625 213.51765625 15.453125 214.27734375 C-1.16901313 231.83330987 -23.37325091 242.9166165 -46.2578125 249.79296875 C-46.91837646 249.99180664 -47.57894043 250.19064453 -48.25952148 250.39550781 C-59.86495661 253.72808689 -71.1828334 254.48653819 -83.1953125 254.48046875 C-84.01184296 254.48087158 -84.82837341 254.48127441 -85.66964722 254.48168945 C-123.84484207 254.3734929 -156.84581571 240.14340121 -184.5078125 214.04296875 C-185.30703125 213.31980469 -186.10625 212.59664062 -186.9296875 211.8515625 C-210.57158105 189.60258306 -225.2946118 154.35057104 -226.62890625 122.11767578 C-227.03422869 108.72379571 -226.7954342 96.06536639 -223.5078125 83.04296875 C-223.10755859 81.22732422 -223.10755859 81.22732422 -222.69921875 79.375 C-214.70549195 45.65923674 -191.74166925 14.00080421 -162.60546875 -4.67285156 C-149.62686188 -12.61832085 -136.24847666 -19.08964899 -121.5078125 -22.95703125 C-120.73630859 -23.16440918 -119.96480469 -23.37178711 -119.16992188 -23.58544922 C-78.83125865 -33.98243556 -33.2075692 -25.28418263 0 0 Z " fill="#26A2D4" transform="translate(596.5078125,340.95703125)"/>
<path d="M0 0 C0.66 0.33 1.32 0.66 2 1 C0.40112446 2.48488441 -1.20428905 3.96273145 -2.8125 5.4375 C-4.15248047 6.67306641 -4.15248047 6.67306641 -5.51953125 7.93359375 C-8 10 -8 10 -11 11 C-11 11.66 -11 12.32 -11 13 C-12.46875 14.4453125 -12.46875 14.4453125 -14.5 16.125 C-20.14374837 20.9326375 -25.37457118 26.04475586 -30.1875 31.6875 C-33.9328602 36.05278188 -38.00661385 40.06380333 -42.11791992 44.08081055 C-45.64688849 47.55380645 -48.9330953 51.17018642 -52.16992188 54.91601562 C-55.99860904 59.27589738 -60.04149093 63.44018874 -64.0390625 67.64453125 C-67.9362518 71.75990296 -71.73704267 75.93603951 -75.45019531 80.21826172 C-77.39024841 82.44865042 -79.38050303 84.63078013 -81.375 86.8125 C-84.50422827 90.27530082 -87.50500349 93.80679003 -90.4375 97.4375 C-93.51336588 101.24087503 -96.68753166 104.90082652 -100 108.5 C-104.06305276 112.91990023 -107.89972888 117.46827153 -111.66796875 122.140625 C-113.70477771 124.6380189 -115.78330056 127.09216465 -117.88476562 129.53515625 C-123.18678344 135.70946598 -128.18339488 142.07314983 -133.09277344 148.56323242 C-136.64808675 153.257275 -140.28808387 157.86672433 -144 162.4375 C-150.68194789 170.70755393 -156.85516528 179.3270774 -163 188 C-163.86165771 189.21526367 -163.86165771 189.21526367 -164.74072266 190.45507812 C-168.17046632 195.29639273 -171.58935801 200.14521231 -175 205 C-174.39768555 204.79189697 -173.79537109 204.58379395 -173.17480469 204.36938477 C-172.45711914 204.24748779 -171.73943359 204.12559082 -171 204 C-168.87782068 205.58570661 -167.1166444 207.09290258 -165.25 208.9375 C-164.74339844 209.41896484 -164.23679687 209.90042969 -163.71484375 210.39648438 C-162.46587496 211.58653954 -161.2314897 212.79186613 -160 214 C-155.29392378 210.149574 -150.92889387 206.03851366 -146.625 201.75 C-146.08907227 201.21858398 -145.55314453 200.68716797 -145.00097656 200.13964844 C-142.14788192 197.33665122 -142.14788192 197.33665122 -140 194 C-141.65 193.34 -143.3 192.68 -145 192 C-145 191.34 -145 190.68 -145 190 C-139.91913204 189.15318867 -135.15171623 188.90961901 -130 189 C-130 193.95 -130 198.9 -130 204 C-130.99 204 -131.98 204 -133 204 C-133.33 203.34 -133.66 202.68 -134 202 C-137.19914233 202.57930415 -138.8246385 203.45394931 -141.09375 205.765625 C-141.92712891 206.60673828 -141.92712891 206.60673828 -142.77734375 207.46484375 C-143.34582031 208.05394531 -143.91429687 208.64304687 -144.5 209.25 C-145.35271484 210.11044922 -145.35271484 210.11044922 -146.22265625 210.98828125 C-148.67744388 213.48863338 -150.96025366 215.94809247 -153.09375 218.734375 C-155 221 -155 221 -160 224 C-165.445 219.545 -165.445 219.545 -171 215 C-179.61228952 219.30614476 -186.30192233 227.17711343 -193 234 C-193.78246094 234.71929688 -194.56492187 235.43859375 -195.37109375 236.1796875 C-198.72788342 239.78087939 -201.17799742 243.69272199 -203.75 247.875 C-204.27005615 248.70620361 -204.7901123 249.53740723 -205.32592773 250.39379883 C-207.83598631 254.42274886 -210.29429366 258.47573937 -212.67578125 262.58203125 C-213.28437988 263.62544678 -213.28437988 263.62544678 -213.90527344 264.68994141 C-214.66265935 265.99731092 -215.40985911 267.31064784 -216.14550781 268.63037109 C-217.16015625 270.38671875 -217.16015625 270.38671875 -219 273 C-219.99 273 -220.98 273 -222 273 C-223.09793383 271.58656794 -224.19156121 270.16947951 -225.25805664 268.73217773 C-228.44977244 264.68766557 -231.49173379 261.48262033 -236.70263672 260.47998047 C-243.10414091 260.1119333 -249.48844826 260.59784155 -255.88378906 260.93115234 C-266.68082249 261.16969539 -281.3214204 259.43227266 -289.92578125 252.43359375 C-293.02756212 249.24624651 -293.94332683 247.5950683 -294.375 243.0625 C-294.25125 242.051875 -294.1275 241.04125 -294 240 C-293.34257812 240.38671875 -292.68515625 240.7734375 -292.0078125 241.171875 C-277.25921636 249.24563224 -261.55928928 250.63283172 -245 251 C-246.04714924 249.67522041 -247.11344669 248.36556254 -248.1875 247.0625 C-248.77917969 246.33160156 -249.37085938 245.60070312 -249.98046875 244.84765625 C-253.81128364 241.34286816 -258.52694956 241.88710638 -263.5 241.6875 C-274.38248154 240.93541227 -284.57767221 238.22739799 -293 231 C-295.67927341 226.98108988 -295.15601248 224.75838077 -295 220 C-294.34 220 -293.68 220 -293 220 C-292.42378906 220.60457031 -291.84757812 221.20914063 -291.25390625 221.83203125 C-284.53898787 228.29092155 -273.97980664 229.80204835 -265 230 C-270.69784056 223.10958816 -275.35419519 220.19500618 -283.9609375 217.9375 C-288.26054779 216.61114207 -291.51630089 214.83150853 -294 211 C-294.44679332 208.75373633 -294.56041387 206.6336715 -294.62744141 204.34692383 C-295.05891474 201.62886801 -295.75611547 200.65868107 -297.59765625 198.65234375 C-298.14317139 198.05284912 -298.68868652 197.45335449 -299.25073242 196.83569336 C-302.09169999 193.85436256 -304.95244618 190.90163822 -307.875 188 C-308.4848877 187.38914551 -309.09477539 186.77829102 -309.72314453 186.14892578 C-313.55312405 182.34131407 -317.46638247 178.73941106 -321.7421875 175.4296875 C-323 174 -323 174 -323 170 C-321.67407227 168.46362305 -321.67407227 168.46362305 -319.81640625 167.01171875 C-319.14005127 166.47297119 -318.46369629 165.93422363 -317.7668457 165.37915039 C-317.03941162 164.82090576 -316.31197754 164.26266113 -315.5625 163.6875 C-314.8305542 163.11443115 -314.0986084 162.5413623 -313.34448242 161.95092773 C-311.89107991 160.8137413 -310.43451439 159.68058428 -308.97460938 158.55175781 C-307.31913603 157.25079483 -305.70828872 155.89331763 -304.109375 154.5234375 C-303.35140625 153.87632812 -302.5934375 153.22921875 -301.8125 152.5625 C-301.17957031 152.00691406 -300.54664063 151.45132813 -299.89453125 150.87890625 C-298 150 -298 150 -295.7578125 150.46484375 C-291.13491162 153.03821492 -287.11035195 156.37854486 -282.97070312 159.65625 C-270.17985002 169.54945961 -250.97284538 168.63421536 -235.48828125 166.68359375 C-226.26233252 164.9775386 -217.77248992 161.18165994 -210 156 C-209.58258014 160.84207034 -209.41434471 163.04831016 -212 167.25 C-223.08142467 178.51408551 -243.2341388 178.65459974 -258 179 C-253.59587241 183.83541553 -253.59587241 183.83541553 -247.8046875 186.5703125 C-245.12545132 186.6338876 -242.65566757 186.37788155 -240 186 C-238.11474609 185.76023437 -238.11474609 185.76023437 -236.19140625 185.515625 C-228.34733104 184.36519811 -221.9764176 182.51534437 -215.13671875 178.3046875 C-213 177 -213 177 -210 176 C-209.67 177.32 -209.34 178.64 -209 180 C-202.33591 172.70570431 -195.7196249 165.38368257 -189.32421875 157.8515625 C-179.67859153 146.50507852 -169.73605885 135.55468983 -159.08203125 125.14453125 C-156.96318583 123.17817678 -156.96318583 123.17817678 -156 121 C-155.34 121 -154.68 121 -154 121 C-153.73517822 120.40469482 -153.47035645 119.80938965 -153.19750977 119.19604492 C-151.95843881 116.9237833 -150.74770286 115.59293826 -148.83984375 113.86328125 C-148.21537354 113.29037354 -147.59090332 112.71746582 -146.94750977 112.12719727 C-146.28420654 111.52834717 -145.62090332 110.92949707 -144.9375 110.3125 C-143.56913003 109.05858084 -142.20193857 107.80337438 -140.8359375 106.546875 C-140.17432617 105.93908203 -139.51271484 105.33128906 -138.83105469 104.70507812 C-136.51493939 102.54831156 -134.28065899 100.31957406 -132.0625 98.0625 C-128.21147461 94.160993 -124.16682414 90.55864863 -120 87 C-118.58127736 85.77320694 -117.16458993 84.54405611 -115.75 83.3125 C-114.81414062 82.50232422 -114.81414062 82.50232422 -113.859375 81.67578125 C-112.56098577 80.50559432 -111.30142707 79.29150819 -110.07421875 78.046875 C-107.84374321 75.84580309 -105.50394404 73.90166927 -103.0625 71.9375 C-99.52806966 69.07740176 -96.03885856 66.18162093 -92.6027832 63.20410156 C-84.25048703 55.99695299 -75.42681136 49.4480892 -66.55664062 42.89648438 C-64.11539738 41.08560035 -61.68872127 39.25693954 -59.265625 37.421875 C-43.63674623 25.64349424 -27.22525698 15.28829554 -10.25 5.5625 C-9.25516602 4.98814209 -8.26033203 4.41378418 -7.23535156 3.82202148 C-6.3172168 3.30454346 -5.39908203 2.78706543 -4.453125 2.25390625 C-3.64004883 1.79314697 -2.82697266 1.3323877 -1.98925781 0.85766602 C-1.33280273 0.57463623 -0.67634766 0.29160645 0 0 Z " fill="#94C855" transform="translate(727,281)"/>
<path d="M0 0 C1.88781296 -0.00302297 3.77562469 -0.00691319 5.66343427 -0.01159257 C10.83575418 -0.02186261 16.0080047 -0.01969325 21.18033028 -0.01541197 C26.76466746 -0.01294293 32.34898801 -0.02196117 37.93331909 -0.02944946 C48.86815127 -0.04219385 59.80295888 -0.04399045 70.73779723 -0.0416492 C79.62760216 -0.03986547 88.51739964 -0.04161687 97.40720367 -0.04587364 C98.6729221 -0.04646883 99.93864053 -0.04706402 101.24271406 -0.04767724 C103.81412449 -0.04888901 106.38553491 -0.05010315 108.95694533 -0.05131962 C126.22046738 -0.05910585 143.48398585 -0.0630267 160.747509 -0.05900288 C161.75961417 -0.05876831 161.75961417 -0.05876831 162.79216591 -0.05852901 C166.21176575 -0.05772326 169.63136558 -0.05687749 173.0509654 -0.05601571 C174.06962471 -0.05575908 174.06962471 -0.05575908 175.10886299 -0.05549726 C176.48218024 -0.0551506 177.85549748 -0.05480207 179.22881472 -0.05445167 C200.59211433 -0.04909586 221.95537265 -0.05702215 243.31866455 -0.07548523 C267.33797618 -0.09621959 291.35725874 -0.10689405 315.37658238 -0.10290974 C328.08770658 -0.10099822 340.79879316 -0.10348045 353.50991058 -0.11762428 C364.33198986 -0.12954443 375.15400838 -0.13093587 385.97608849 -0.11883412 C391.49475804 -0.11294972 397.01331649 -0.11183392 402.53197861 -0.12383652 C407.59020587 -0.1347096 412.64822948 -0.13157491 417.70644727 -0.11757483 C419.53007304 -0.11493183 421.35371485 -0.11728189 423.17732486 -0.1253107 C447.36048654 -0.22433763 468.03865382 5.70054612 486.00421143 22.67085266 C501.75832587 38.99113059 507.14693554 59.60214155 507.00541687 81.56672668 C507.00931867 83.26427979 507.0149661 84.96182962 507.02218777 86.65937185 C507.03683424 91.28268779 507.02682608 95.90565938 507.01245105 100.5289638 C507.00128315 105.53109517 507.01330301 110.5331805 507.02229309 115.53530884 C507.03618811 125.31812604 507.02869703 135.1008137 507.01361751 144.88362467 C506.99671064 156.2884175 506.99997358 167.69317847 507.00371159 179.09797996 C507.00958333 199.45416544 506.99544554 219.81028897 506.97076416 240.16645813 C506.94684544 259.89597394 506.93976081 279.62540699 506.95025635 299.35493469 C506.96167898 320.86559584 506.96357899 342.37621875 506.94915825 363.88687944 C506.94763249 366.18285656 506.94611214 368.47883367 506.94459724 370.77481079 C506.94383943 371.90432461 506.94308162 373.03383844 506.94230084 374.19757995 C506.93756841 382.13762583 506.93940205 390.07765458 506.94366264 398.0177002 C506.94860154 407.70071806 506.9425505 417.38365786 506.92276835 427.0666579 C506.91293183 432.0022073 506.90775171 436.93763811 506.91566086 441.87319374 C506.92276568 446.39960445 506.91580191 450.92577686 506.89805723 455.45215636 C506.89404363 457.0811655 506.89496002 458.71019669 506.90157609 460.33919734 C506.98757074 483.5133501 501.16360233 503.62402264 484.93780518 520.91694641 C467.15411319 538.0440976 445.94397536 542.89808742 422.16627502 542.76190186 C420.26019397 542.76580289 418.35411584 542.77144973 416.44804448 542.77867275 C411.25306115 542.79332963 406.05838396 542.78330469 400.86341083 542.76893604 C395.24442602 542.75777445 389.62548235 542.76978584 384.00650024 542.77877808 C373.01664383 542.79267651 362.0269027 542.78517985 351.03705183 542.77010249 C338.22969596 542.75320331 325.4223685 542.75645751 312.61500492 542.76019657 C289.07045881 542.76624599 265.525987 542.75049702 241.98145915 542.72500894 C220.50977596 542.70188795 199.03816012 542.69650991 177.56646729 542.70674133 C172.06555592 542.70934357 166.56464455 542.71192865 161.0637331 542.71433926 C160.04773666 542.71478543 160.04773666 542.71478543 159.01121504 542.71524061 C141.0410832 542.72286235 123.0709589 542.71637819 105.10082883 542.70564324 C102.52405401 542.70411745 99.9472792 542.70259709 97.37050438 542.70108223 C95.46894572 542.69994551 95.46894572 542.69994551 93.52897174 542.69878582 C84.60763547 542.6940488 75.68631444 542.69589025 66.76497841 542.70014763 C55.89103858 542.70508015 45.01716834 542.6990635 34.14324442 542.67925333 C28.5983347 542.66939951 23.05353082 542.66425568 17.50861549 542.67214584 C12.42784877 542.67922753 7.34729514 542.67233996 2.2665564 542.65454222 C0.43371052 542.6505139 -1.39915494 542.65147026 -3.2319934 542.65806108 C-16.43888129 542.70146926 -28.79189076 541.88092118 -40.68328857 535.51069641 C-41.3569043 535.15999084 -42.03052002 534.80928528 -42.72454834 534.44795227 C-60.97338639 524.75592286 -73.38566932 510.85696979 -80.52313232 491.49116516 C-83.47436244 481.68928842 -83.7818685 472.64733462 -83.75648499 462.51087952 C-83.75950791 460.80058318 -83.76339811 459.09028819 -83.76807755 457.37999558 C-83.77834821 452.69375118 -83.77617809 448.00758336 -83.77189696 443.32133269 C-83.76942802 438.26188189 -83.77844604 433.20244944 -83.78593445 428.14300537 C-83.79867923 418.23574746 -83.80047537 408.32851665 -83.79813419 398.42125192 C-83.79635046 390.36665461 -83.79810185 382.31206551 -83.80235863 374.25746918 C-83.80325141 372.53726602 -83.80325141 372.53726602 -83.80416223 370.78231128 C-83.805374 368.45248459 -83.80658813 366.1226579 -83.80780461 363.79283121 C-83.8186795 341.94640106 -83.81651801 320.09998635 -83.81041976 298.25355533 C-83.80525185 278.27809036 -83.81650283 258.30267418 -83.83551798 238.32721886 C-83.85490167 217.80697136 -83.86315137 197.28674693 -83.85939473 176.76649022 C-83.85748334 165.24977974 -83.85996413 153.73311078 -83.87410927 142.21640778 C-83.88603085 132.41096054 -83.88741927 122.60558036 -83.8753191 112.80013219 C-83.86943564 107.80005762 -83.86831627 102.80010565 -83.8803215 97.80003929 C-83.89119784 93.21675899 -83.88805612 88.63370341 -83.87405982 84.05043355 C-83.87141769 82.39839617 -83.8737641 80.74634107 -83.88179568 79.0943211 C-83.93894577 66.45494979 -82.85367053 54.48013534 -76.80828857 43.13569641 C-76.28500977 42.12914001 -76.28500977 42.12914001 -75.75115967 41.10224915 C-65.93545348 22.68072062 -51.35837996 10.65500255 -31.85906982 3.26850891 C-21.24367018 0.08758776 -10.99012127 -0.02493689 0 0 Z M-63.37078857 33.76069641 C-72.43769221 46.14475991 -76.60797201 58.35423511 -76.63000965 73.63753605 C-76.63236188 74.33788281 -76.63471411 75.03822958 -76.63713762 75.75979897 C-76.64376659 78.09418492 -76.64337126 80.42851442 -76.64295959 82.76290894 C-76.64626201 84.45854159 -76.64998837 86.15417346 -76.65410107 87.84980434 C-76.66408589 92.50021995 -76.66783217 97.15062265 -76.67049038 101.80104744 C-76.6744038 106.82033274 -76.68398125 111.83960791 -76.69270325 116.85888672 C-76.71243625 128.97437737 -76.72252891 141.08986883 -76.73143104 153.20537153 C-76.73581828 158.91512268 -76.74118388 164.62487291 -76.74641991 170.33462334 C-76.76342744 189.32139805 -76.77792154 208.30817219 -76.78516865 227.29495335 C-76.78707843 232.21851159 -76.78899878 237.14206983 -76.79095459 242.06562805 C-76.79143833 243.28930267 -76.79192207 244.51297729 -76.79242047 245.77373295 C-76.80072064 265.59595641 -76.82605949 285.41811953 -76.85853527 305.24031664 C-76.89162649 325.60459702 -76.90961919 345.96884674 -76.91281289 366.33315414 C-76.91497584 377.76165668 -76.92369337 389.19007115 -76.94927406 400.61854744 C-76.97100905 410.35113938 -76.97901761 420.08362185 -76.96930728 429.81623531 C-76.96477101 434.77811269 -76.96660977 439.73976433 -76.98606873 444.70161057 C-77.00376087 449.25239456 -77.00265389 453.80278913 -76.98717143 458.35357761 C-76.98480455 459.99155353 -76.98907069 461.62955686 -77.00100008 463.26749105 C-77.14061312 483.71904196 -71.58559098 501.9299979 -57.06610107 516.89350891 C-53.14216394 520.50734767 -49.06690339 523.51802752 -44.49578857 526.26069641 C-43.72879639 526.72089172 -42.9618042 527.18108704 -42.17156982 527.65522766 C-28.76605484 534.98948462 -15.16590315 535.84702927 -0.27137756 535.76190186 C1.63455313 535.76580201 3.5404809 535.77144815 5.44640189 535.77867275 C10.64557496 535.79334228 15.84444252 535.78329703 21.04360545 535.76893604 C26.66531544 535.75778176 32.28698413 535.76978345 37.90869141 535.77877808 C48.905702 535.79268145 59.90259743 535.78517618 70.8996025 535.77010249 C83.71347074 535.75320935 96.52731056 535.75645675 109.3411865 535.76019657 C132.89672495 535.76624694 156.45218915 535.75049348 180.00770936 535.72500894 C201.49264659 535.70188769 222.97751651 535.69650979 244.46246338 535.70674133 C249.96664521 535.70934354 255.47082704 535.7119286 260.97500896 535.71433926 C261.6527276 535.7146367 262.33044623 535.71493415 263.0287018 535.71524061 C281.00614169 535.72286115 298.98357405 535.71637928 316.96101218 535.70564324 C319.53862718 535.70411744 322.11624219 535.70259708 324.69385719 535.70108223 C325.96199867 535.70032442 327.23014014 535.6995666 328.53671014 535.69878582 C337.46401499 535.69404746 346.39130462 535.6958912 355.31860924 535.70014763 C366.19882352 535.70507855 377.07896824 535.69907059 387.95916661 535.67925333 C393.507996 535.66939493 399.05671957 535.66426066 404.60555458 535.67214584 C409.68877615 535.67922152 414.77178452 535.67235387 419.85497806 535.65454222 C421.68985487 535.65051003 423.52475123 535.65147684 425.35962065 535.65806108 C435.17576224 535.69025989 444.06738149 535.34624873 453.50421143 532.26069641 C454.62956299 531.89589172 455.75491455 531.53108704 456.91436768 531.15522766 C474.70801185 523.89625942 487.67779098 510.66289872 495.31671143 493.13569641 C499.65334187 482.68634115 499.79666251 472.66720279 499.77836609 461.57575989 C499.78282246 459.87243843 499.78813781 458.16911904 499.79423481 456.46580267 C499.80837762 451.79868962 499.81007881 447.13164328 499.8096379 442.46451187 C499.81128942 437.42542909 499.82436224 432.38637353 499.83583069 427.3473053 C499.8586547 416.33465169 499.86659862 405.32201739 499.87165713 394.30934334 C499.8749174 387.42802774 499.88144191 380.54671772 499.88865852 373.66540527 C499.90822165 354.59881521 499.92462735 335.53223032 499.92753506 316.46562958 C499.92781641 314.63638196 499.92781641 314.63638196 499.92810345 312.77017984 C499.92846969 310.29814116 499.92883339 307.82610249 499.92919456 305.35406381 C499.92937737 304.12700257 499.92956018 302.89994133 499.92974854 301.63569641 C499.92992908 300.40713069 499.93010963 299.17856496 499.93029565 297.91276997 C499.93383582 278.01434318 499.9608497 258.1160247 499.99824642 238.21763545 C500.03636722 217.76968826 500.05569281 197.32179475 500.05599457 176.87381124 C500.05657831 165.40053067 500.06501682 153.92737931 500.09399223 142.45413208 C500.11855663 132.68280596 500.12575491 122.91165617 500.11074471 113.14030749 C500.10359636 108.1599045 500.10434343 103.17984934 500.1271553 98.19948578 C500.14788615 93.62943838 500.14501466 89.06000311 500.12428046 84.48996133 C500.12081233 82.84726921 500.1255803 81.20453163 500.1399849 79.56189901 C500.31068508 58.73356424 494.06836262 41.04092075 479.33233643 25.95600891 C475.34790171 22.15868853 471.22810883 19.07236015 466.50421143 16.26069641 C465.75010986 15.80179016 464.9960083 15.34288391 464.21905518 14.87007141 C450.70315979 7.3787905 436.21209877 6.67248349 421.17300415 6.75276184 C419.26763517 6.74814314 417.36226976 6.74178377 415.45691168 6.73385286 C410.26386566 6.71726979 405.07111648 6.72535537 399.87806988 6.73779774 C394.26110587 6.74689122 388.64419101 6.73285736 383.02723694 6.72187805 C372.04106068 6.70413466 361.05499402 6.70791397 350.06881355 6.71952862 C341.13766982 6.72857822 332.2065567 6.72978034 323.2754097 6.72543335 C322.00217813 6.72482042 320.72894655 6.72420749 319.41713221 6.72357598 C316.83025998 6.72229703 314.24338776 6.72100017 311.65651555 6.71968561 C288.11657751 6.70861679 264.57671275 6.72007625 241.03678703 6.741056 C219.57179502 6.76004104 198.10689793 6.758334 176.64190674 6.73921204 C152.49289187 6.71777062 128.34394444 6.70938629 104.19491732 6.72166109 C101.61840543 6.72293524 99.04189353 6.72419272 96.46538162 6.72543335 C95.19781656 6.72605045 93.9302515 6.72666755 92.62427538 6.72730336 C83.70640675 6.73075214 74.78857187 6.72493817 65.87070847 6.71551514 C54.99934469 6.70427996 44.1280964 6.70736739 33.2567458 6.72863811 C27.71370623 6.73912732 22.17085898 6.74330655 16.62782097 6.7300415 C11.54756484 6.71806805 6.46767821 6.72476157 1.3874553 6.74595171 C-0.44406285 6.75039678 -2.27561263 6.74819903 -4.10711022 6.73844856 C-28.50096878 6.61860633 -47.73380497 14.62596647 -63.37078857 33.76069641 Z " fill="#95CFA8" transform="translate(300.49578857421875,248.7393035888672)"/>
<path d="M0 0 C1.10480713 -0.00555908 2.20961426 -0.01111816 3.34790039 -0.0168457 C16.25942442 0.09637084 32.02264554 2.26744851 41.6875 11.71484375 C42.8125 13.3125 42.8125 13.3125 43.625 16.75 C42.50401324 21.66509578 40.89249388 24.31334661 36.8125 27.3125 C16.97082037 36.5964464 -8.51529049 37.71697939 -29.1875 30.3125 C-34.57722354 27.86915866 -38.94590728 25.36819507 -42.1875 20.3125 C-42.87382746 16.36611712 -42.424102 14.7122758 -40.375 11.25 C-30.47230916 0.65384342 -13.42509078 0.05734406 0 0 Z " fill="#F9FDFD" transform="translate(474.1875,368.6875)"/>
<path d="M0 0 C22.32258065 0 22.32258065 0 28.375 4.9375 C30.95419821 9.79829663 30.61851045 14.6153208 30 20 C27.9375 25.53125 27.9375 25.53125 25 27 C24.56749368 32.6045611 26.12464571 36.94665685 28 42.125 C28.56807254 43.70895 29.13078057 45.29483659 29.6875 46.8828125 C29.93886719 47.57777832 30.19023438 48.27274414 30.44921875 48.98876953 C31 51 31 51 31 55 C28.03 55 25.06 55 22 55 C19.23049233 47.10690315 17.0998919 39.09044645 15 31 C13.35 30.67 11.7 30.34 10 30 C10 38.25 10 46.5 10 55 C6.7 55 3.4 55 0 55 C0 36.85 0 18.7 0 0 Z " fill="#4D4E4E" transform="translate(546,642)"/>
<path d="M0 0 C21 0 21 0 27 4 C30.59954078 7.95949486 30.49764439 12.20915031 30.359375 17.33203125 C29.82910785 21.26868846 28.67966646 23.09064784 26 26 C25.01 26.33 24.02 26.66 23 27 C23.24234375 27.77714355 23.4846875 28.55428711 23.734375 29.35498047 C24.82582986 32.86075446 25.91296783 36.36785228 27 39.875 C27.3815625 41.09832031 27.763125 42.32164062 28.15625 43.58203125 C28.5171875 44.74863281 28.878125 45.91523437 29.25 47.1171875 C29.75273438 48.73536377 29.75273438 48.73536377 30.265625 50.38623047 C31 53 31 53 31 55 C27.7 55 24.4 55 21 55 C19.99536465 51.39706668 18.99611006 47.79279025 18 44.1875 C17.71382812 43.16333984 17.42765625 42.13917969 17.1328125 41.08398438 C16.86210938 40.10107422 16.59140625 39.11816406 16.3125 38.10546875 C16.06113281 37.19949951 15.80976562 36.29353027 15.55078125 35.36010742 C15 33 15 33 15 30 C13.02 30 11.04 30 9 30 C9 37.92 9 45.84 9 54 C6.03 54 3.06 54 0 54 C0 36.18 0 18.36 0 0 Z " fill="#494A4A" transform="translate(724,642)"/>
<path d="M0 0 C2.31 0 4.62 0 7 0 C10.30154181 6.36076862 13.07268822 12.85548942 15.75 19.5 C17.1525 22.965 18.555 26.43 20 30 C20.33 20.43 20.66 10.86 21 1 C23.64 1 26.28 1 29 1 C29 19.15 29 37.3 29 56 C26.69 56 24.38 56 22 56 C18 46 14 36 10 26 C9.67 35.9 9.34 45.8 9 56 C6.03 56 3.06 56 0 56 C0 37.52 0 19.04 0 0 Z " fill="#4E4F4F" transform="translate(395,641)"/>
<path d="M0 0 C21 0 21 0 27 4 C30.61859711 7.98045682 30.45007032 12.20340714 30.27734375 17.34375 C29.9035138 20.92409322 29.18039599 23.11625047 27 26 C20.6303558 31.04263499 18.04698688 30 9 30 C9 38.25 9 46.5 9 55 C6.03 55 3.06 55 0 55 C0 36.85 0 18.7 0 0 Z " fill="#474749" transform="translate(329,642)"/>
<path d="M0 0 C2.97 0 5.94 0 9 0 C9.33 6.93 9.66 13.86 10 21 C13.3 14.07 16.6 7.14 20 0 C23.3 0 26.6 0 30 0 C29.36191406 1.39734375 28.72382812 2.7946875 28.06640625 4.234375 C27.23159458 6.07283665 26.39696886 7.91138273 25.5625 9.75 C25.14162109 10.67039062 24.72074219 11.59078125 24.28710938 12.5390625 C23.88427734 13.42851563 23.48144531 14.31796875 23.06640625 15.234375 C22.69459229 16.05131836 22.32277832 16.86826172 21.93969727 17.70996094 C21.47454712 18.84353027 21.47454712 18.84353027 21 20 C20.74476563 20.62084473 20.48953125 21.24168945 20.2265625 21.88134766 C19.87349303 25.18300378 21.09951774 27.5996766 22.30859375 30.6640625 C22.55416519 31.29734467 22.79973663 31.93062683 23.05274963 32.58309937 C23.83734346 34.60128423 24.6366772 36.61320619 25.4375 38.625 C26.23205149 40.64487524 27.02347015 42.66591071 27.8115387 44.68832397 C28.52648837 46.51933931 29.25022353 48.3469169 29.97436523 50.17431641 C31 53 31 53 31 55 C27.7 55 24.4 55 21 55 C19.66165014 51.21008507 18.33017337 47.41779164 17 43.625 C16.6184375 42.54476562 16.236875 41.46453125 15.84375 40.3515625 C15.4828125 39.3203125 15.121875 38.2890625 14.75 37.2265625 C14.41484375 36.27346191 14.0796875 35.32036133 13.734375 34.33837891 C13 32 13 32 13 30 C12.34 30 11.68 30 11 30 C10.0268319 32.9195043 9.8070454 35.05444951 9.68359375 38.10546875 C9.64169922 39.08837891 9.59980469 40.07128906 9.55664062 41.08398438 C9.51732422 42.10814453 9.47800781 43.13230469 9.4375 44.1875 C9.39431641 45.22326172 9.35113281 46.25902344 9.30664062 47.32617188 C9.20055634 49.8839819 9.09849854 52.44188845 9 55 C6.03 55 3.06 55 0 55 C0 36.85 0 18.7 0 0 Z " fill="#484949" transform="translate(658,642)"/>
<path d="M0 0 C3.3 0 6.6 0 10 0 C10.26216309 1.26070312 10.52432617 2.52140625 10.79443359 3.8203125 C11.77312932 8.52458759 12.7539318 13.22842142 13.73535156 17.93212891 C14.15877279 19.96293469 14.58163255 21.99385764 15.00390625 24.02490234 C15.61308423 26.95441624 16.22432056 29.88349446 16.8359375 32.8125 C17.02247894 33.71178223 17.20902039 34.61106445 17.4012146 35.53759766 C18.23313546 39.51287356 19.10316561 43.45827814 20.13525391 47.38671875 C21 51 21 51 21 55 C18.03 55 15.06 55 12 55 C11.67 53.618125 11.34 52.23625 11 50.8125 C10.814375 50.03519531 10.62875 49.25789062 10.4375 48.45703125 C10 46 10 46 10 41 C6.7 41 3.4 41 0 41 C-0.66 45.62 -1.32 50.24 -2 55 C-5.3 55 -8.6 55 -12 55 C-11.71390869 53.73019287 -11.42781738 52.46038574 -11.13305664 51.15209961 C-9.98170561 45.96940816 -8.92028378 40.77058813 -7.87109375 35.56640625 C-7.47212481 33.59958511 -7.07303278 31.63278894 -6.67382812 29.66601562 C-6.05153265 26.59604106 -5.43011734 23.52589729 -4.81079102 20.45532227 C-4.20843458 17.47099524 -3.60255324 14.48740178 -2.99609375 11.50390625 C-2.71795082 10.11807091 -2.71795082 10.11807091 -2.43418884 8.70423889 C-2.26053299 7.85252609 -2.08687714 7.00081329 -1.90795898 6.12329102 C-1.75632797 5.37322281 -1.60469696 4.6231546 -1.44847107 3.85035706 C-1 2 -1 2 0 0 Z " fill="#4A4B4C" transform="translate(593,642)"/>
<path d="M0 0 C4.45498552 2.1102563 7.22604963 4.36801849 9 9 C9.23398604 12.68138034 9.17415011 16.31704771 9 20 C6.03 20 3.06 20 0 20 C-0.16276042 17.75390625 -0.32552083 15.5078125 -0.48828125 13.26171875 C-1.09153773 10.59541719 -1.84014423 9.63815148 -4 8 C-6.54230847 7.58320703 -6.54230847 7.58320703 -9 8 C-11.51226869 10.51226869 -11.24660779 12.05738572 -11.27789307 15.48594666 C-11.2738446 16.2317952 -11.26979614 16.97764374 -11.265625 17.74609375 C-11.26849518 18.89646873 -11.26849518 18.89646873 -11.27142334 20.07008362 C-11.27278524 21.6932915 -11.26908845 23.31651027 -11.26074219 24.93969727 C-11.25005703 27.4242403 -11.26062942 29.90805787 -11.2734375 32.39257812 C-11.27211562 33.9687516 -11.26955263 35.54492462 -11.265625 37.12109375 C-11.26967346 37.86491806 -11.27372192 38.60874237 -11.27789307 39.37510681 C-11.24382132 43.12607425 -11.13391803 44.79912296 -9 48 C-5.91634129 48.2502157 -5.91634129 48.2502157 -3 48 C-0.60926555 44.17482487 -0.44033448 40.40334476 0 36 C2.97 36 5.94 36 9 36 C9.59855973 42.49104774 9.14537354 46.88589751 5.58203125 52.40625 C2.07410455 55.94016134 -2.14412151 56.33262557 -6.9375 56.4375 C-10.66035297 56.35517647 -13.5032582 56.29159579 -16.5625 54.0625 C-22.9291795 46.06333858 -22.49036205 36.77464672 -22.4375 26.9375 C-22.45680989 25.60089857 -22.47698688 24.26430938 -22.49804688 22.92773438 C-22.4936369 14.12100608 -21.95848788 7.95848788 -15.5 1.5 C-10.31975333 -0.72010572 -5.55131971 -0.75388292 0 0 Z " fill="#4C4C4D" transform="translate(641,641)"/>
<path d="M0 0 C3.63498251 2.62056879 4.82593004 4.85636586 6.6875 8.9375 C6.6875 10.2575 6.6875 11.5775 6.6875 12.9375 C3.97870665 14.29189668 1.67816732 14.00251451 -1.3125 13.9375 C-1.9725 11.9575 -2.6325 9.9775 -3.3125 7.9375 C-6.21323181 7.25948966 -6.21323181 7.25948966 -9.3125 6.9375 C-11.54843611 8.79620778 -11.54843611 8.79620778 -11.8125 11.625 C-10.74996669 18.66428316 -4.30598111 22.90314517 0.85546875 27.3046875 C5.42214531 31.37477449 7.53489189 34.61022633 7.9375 40.75 C7.85124952 45.97294555 6.03025681 49.29154004 2.75 53.3125 C-2.13056445 55.90218726 -6.91140753 55.64739969 -12.3125 54.9375 C-16.6585205 53.03135066 -17.92080999 51.65559835 -20.1875 47.5 C-21.18368176 44.34542444 -21.69566131 42.19437113 -21.3125 38.9375 C-20.3125 37.9375 -20.3125 37.9375 -16.75 37.875 C-15.615625 37.895625 -14.48125 37.91625 -13.3125 37.9375 C-13.02375 38.865625 -12.735 39.79375 -12.4375 40.75 C-11.425 44.03541667 -11.425 44.03541667 -9.3125 46.9375 C-6.8125 47.35416667 -6.8125 47.35416667 -4.3125 46.9375 C-2.09489082 45.08205834 -2.09489082 45.08205834 -1.75 42.3125 C-2.89633298 35.43450214 -8.98539097 31.16668188 -14.0625 26.8125 C-18.15983833 23.21773127 -20.82949746 20.36186419 -21.6171875 14.77734375 C-21.92509574 9.35272504 -21.00369562 6.12750584 -17.3125 1.9375 C-12.2095713 -2.43643888 -6.09344225 -1.95450035 0 0 Z " fill="#4B4B4B" transform="translate(453.3125,642.0625)"/>
<path d="M0 0 C2.97 0 5.94 0 9 0 C10.98 4.95 12.96 9.9 15 15 C17.51602186 12.48397814 18.00184471 10.32111136 19.0625 6.9375 C20.90277778 1.09722222 20.90277778 1.09722222 22 0 C24.67058851 -0.14115161 27.32432238 -0.04247107 30 0 C28.73479899 4.71675815 27.3195091 9.32214468 25.4296875 13.828125 C25.15398926 14.48675537 24.87829102 15.14538574 24.59423828 15.82397461 C24.03899139 17.13180745 23.47253082 18.43494584 22.89404297 19.73266602 C20.75970865 24.76302769 21.08104089 27.51649451 22.93969727 32.53955078 C23.31151123 33.41595215 23.6833252 34.29235352 24.06640625 35.1953125 C24.6706543 36.63970703 24.6706543 36.63970703 25.28710938 38.11328125 C26.14076913 40.12912099 26.99493988 42.14474441 27.84960938 44.16015625 C28.45192383 45.60068359 28.45192383 45.60068359 29.06640625 47.0703125 C29.43709229 47.94445801 29.80777832 48.81860352 30.18969727 49.71923828 C31 52 31 52 31 55 C28.03 55 25.06 55 22 55 C20.99422987 52.23113877 19.99519853 49.46015896 19 46.6875 C18.71382813 45.90181641 18.42765625 45.11613281 18.1328125 44.30664062 C17.86210937 43.54931641 17.59140625 42.79199219 17.3125 42.01171875 C17.06113281 41.31522217 16.80976563 40.61872559 16.55078125 39.90112305 C16 38 16 38 16 35 C15.34 35 14.68 35 14 35 C13.731875 36.27875 13.46375 37.5575 13.1875 38.875 C10.0625 52.9375 10.0625 52.9375 8 55 C5.32941149 55.14115161 2.67567762 55.04247107 0 55 C0.70556069 48.16061331 3.6513974 42.06415435 6.29296875 35.78710938 C10.17936945 26.08503738 7.83444754 19.92652245 3.9375 10.625 C3.19533691 8.82604741 2.45438193 7.02659576 1.71484375 5.2265625 C1.38605225 4.43846191 1.05726074 3.65036133 0.71850586 2.83837891 C0 1 0 1 0 0 Z " fill="#4A4A4A" transform="translate(292,642)"/>
<path d="M0 0 C1.54107422 0.83144531 1.54107422 0.83144531 3.11328125 1.6796875 C4.51261889 2.41222667 5.91238188 3.14395368 7.3125 3.875 C7.98345703 4.23980469 8.65441406 4.60460937 9.34570312 4.98046875 C19.34205324 10.14290308 29.78501236 10.35060456 40.8425293 10.31567383 C42.93135654 10.31250931 45.01876791 10.33608093 47.10742188 10.36132812 C58.00765736 10.41417931 67.94175594 9.06897727 77.625 3.875 C78.60726562 3.35679687 79.58953125 2.83859375 80.6015625 2.3046875 C81.39304687 1.87414062 82.18453125 1.44359375 83 1 C83.66 0.67 84.32 0.34 85 0 C85.48241206 7.11557789 85.48241206 7.11557789 83.5 10.75 C72.93607249 20.25753476 58.19788978 21.2193756 44.69946289 21.29516602 C43.2908313 21.30659214 41.88223971 21.32689242 40.47387695 21.35668945 C27.2428754 21.63554843 12.12087186 20.66193018 2 11 C-0.46905342 7.48845735 -0.16095896 4.18493288 0 0 Z " fill="#F5FAFB" transform="translate(432,400)"/>
<path d="M0 0 C2.07567987 1.02368757 4.12716605 2.0698031 6.15625 3.18359375 C17.29294406 9.14172507 27.92278591 10.477254 40.4375 10.3125 C41.65759766 10.31572266 42.87769531 10.31894531 44.13476562 10.32226562 C54.40428309 10.26220997 65.00680804 9.84243626 74.5 5.5625 C75.4384375 5.15128906 76.376875 4.74007813 77.34375 4.31640625 C79.98933785 3.00528404 82.49295389 1.55782032 85 0 C85.43186431 4.31864308 85.33754717 6.4620342 83 10.1875 C73.66597835 19.85487957 57.6440195 21.16235189 44.97338867 21.47705078 C30.38327655 21.57174598 14.42003034 21.46836115 3 11 C-0.03217285 7.32463897 -0.32841826 4.7073284 0 0 Z " fill="#F5FAFB" transform="translate(432,419)"/>
<path d="M0 0 C7.92 0 15.84 0 24 0 C24 1.98 24 3.96 24 6 C19.38 6 14.76 6 10 6 C10 11.61 10 17.22 10 23 C13.3 23 16.6 23 20 23 C20 24.98 20 26.96 20 29 C16.7 29 13.4 29 10 29 C10 35.27 10 41.54 10 48 C14.62 48 19.24 48 24 48 C24 50.31 24 52.62 24 55 C16.08 55 8.16 55 0 55 C0 36.85 0 18.7 0 0 Z " fill="#4D4E4E" transform="translate(365,642)"/>
<path d="M0 0 C7.59 0 15.18 0 23 0 C23 1.98 23 3.96 23 6 C18.38 6 13.76 6 9 6 C9 11.61 9 17.22 9 23 C12.63 23 16.26 23 20 23 C20 24.98 20 26.96 20 29 C16.37 29 12.74 29 9 29 C9 35.27 9 41.54 9 48 C13.95 48 18.9 48 24 48 C24 50.31 24 52.62 24 55 C16.08 55 8.16 55 0 55 C0 36.85 0 18.7 0 0 Z " fill="#48494A" transform="translate(694,642)"/>
<path d="M0 0 C7.59 0 15.18 0 23 0 C23 1.98 23 3.96 23 6 C18.38 6 13.76 6 9 6 C9 11.61 9 17.22 9 23 C12.63 23 16.26 23 20 23 C20 24.98 20 26.96 20 29 C16.37 29 12.74 29 9 29 C9 35.27 9 41.54 9 48 C13.62 48 18.24 48 23 48 C23 50.31 23 52.62 23 55 C15.41 55 7.82 55 0 55 C0 36.85 0 18.7 0 0 Z " fill="#474849" transform="translate(468,642)"/>
<path d="M0 0 C7.59 0 15.18 0 23 0 C23 1.98 23 3.96 23 6 C18.38 6 13.76 6 9 6 C9 11.61 9 17.22 9 23 C12.3 23 15.6 23 19 23 C19 24.98 19 26.96 19 29 C15.7 29 12.4 29 9 29 C9 35.27 9 41.54 9 48 C13.62 48 18.24 48 23 48 C23 49.98 23 51.96 23 54 C15.41 54 7.82 54 0 54 C0 36.18 0 18.36 0 0 Z " fill="#434546" transform="translate(265,642)"/>
<path d="M0 0 C0 15.51 0 31.02 0 47 C-4.95 47 -9.9 47 -15 47 C-15.23161783 42.2106579 -15.42973285 37.441152 -15.54931641 32.65063477 C-15.5991877 31.02756542 -15.66712035 29.40493561 -15.75439453 27.78344727 C-16.53579997 12.87698936 -16.53579997 12.87698936 -11.47567749 6.87263489 C-4.87433559 0 -4.87433559 0 0 0 Z " fill="#FBFDFD" transform="translate(596,489)"/>
<path d="M0 0 C9.24 0 18.48 0 28 0 C28 2.31 28 4.62 28 7 C25.03 7 22.06 7 19 7 C19 22.51 19 38.02 19 54 C16.03 54 13.06 54 10 54 C10 38.49 10 22.98 10 7 C6.7 7 3.4 7 0 7 C0 4.69 0 2.38 0 0 Z " fill="#454545" transform="translate(512,642)"/>
<path d="M0 0 C0 4.95 0 9.9 0 15 C-0.99 15 -1.98 15 -3 15 C-3.495 14.01 -3.495 14.01 -4 13 C-7.19914233 13.57930415 -8.8246385 14.45394931 -11.09375 16.765625 C-11.64933594 17.32636719 -12.20492187 17.88710938 -12.77734375 18.46484375 C-13.34582031 19.05394531 -13.91429687 19.64304687 -14.5 20.25 C-15.06847656 20.82363281 -15.63695312 21.39726562 -16.22265625 21.98828125 C-18.67744388 24.48863338 -20.96025366 26.94809247 -23.09375 29.734375 C-25 32 -25 32 -30 35 C-33.63 32.03 -37.26 29.06 -41 26 C-49.59829871 30.29914936 -56.33429403 38.16672042 -63 45 C-63 41.47337643 -62.2253605 40.42588947 -60.33203125 37.5078125 C-59.76806641 36.63769531 -59.20410156 35.76757812 -58.62304688 34.87109375 C-57.72682617 33.51177734 -57.72682617 33.51177734 -56.8125 32.125 C-56.23435547 31.22652344 -55.65621094 30.32804687 -55.06054688 29.40234375 C-51.01140663 23.20738794 -47.74574877 18.37287438 -41 15 C-35.555 19.95 -35.555 19.95 -30 25 C-25.29392378 21.149574 -20.92889387 17.03851366 -16.625 12.75 C-15.8211084 11.95287598 -15.8211084 11.95287598 -15.00097656 11.13964844 C-12.14788192 8.33665122 -12.14788192 8.33665122 -10 5 C-12.475 4.01 -12.475 4.01 -15 3 C-15 2.34 -15 1.68 -15 1 C-9.91913204 0.15318867 -5.15171623 -0.09038099 0 0 Z " fill="#F6FAFA" transform="translate(597,470)"/>
<path d="M0 0 C0.33 0 0.66 0 1 0 C1.41741986 4.84207034 1.58565529 7.04831016 -1 11.25 C-10.40682948 20.81188711 -27.17230135 22.43089156 -39.9375 22.8125 C-46.63120039 22.85643851 -50.94421598 22.33129764 -56.125 17.6875 C-57.46360539 16.16502024 -58.76288174 14.60603469 -60 13 C-60.98996036 11.99006016 -61.98826196 10.98812253 -63 10 C-62.42531982 10.06856201 -61.85063965 10.13712402 -61.25854492 10.20776367 C-40.98821011 12.44976426 -19.93590351 13.10138028 -2 2 C-1.34 1.34 -0.68 0.68 0 0 Z " fill="#F7FBFB" transform="translate(516,437)"/>
<path d="M0 0 C0.65742188 0.38671875 1.31484375 0.7734375 1.9921875 1.171875 C15.21006964 8.4076804 29.03343922 10.61860126 44.00756836 10.3215332 C50.21212563 10.35667469 50.21212563 10.35667469 52.64208984 12.34082031 C53.98046875 13.9765625 53.98046875 13.9765625 56 17 C56.66 17.33 57.32 17.66 58 18 C58 18.66 58 19.32 58 20 C43.48852393 24.02346246 21.60694579 21.50974473 7.95703125 15.22265625 C4.50825608 13.06803224 1.8942638 10.62315536 0 7 C-0.375 3.0625 -0.375 3.0625 0 0 Z " fill="#F5FAFB" transform="translate(433,521)"/>
<path d="M0 0 C0.66 0 1.32 0 2 0 C2 0.66 2 1.32 2 2 C2.598125 2.28875 3.19625 2.5775 3.8125 2.875 C6 4 6 4 9 6 C11.84120234 5.64484971 14.28047752 4.90650749 17 4 C17 13.24 17 22.48 17 32 C11.39 32 5.78 32 0 32 C0 21.44 0 10.88 0 0 Z " fill="#ECF6F9" transform="translate(557,505)"/>
<path d="M0 0 C0.33 0 0.66 0 1 0 C0.99907821 0.67363083 0.99815641 1.34726166 0.99720669 2.04130554 C0.97497502 18.54818502 0.95850338 35.05505966 0.94818783 51.56195068 C0.94306478 59.54504947 0.93609967 67.52813817 0.92456055 75.51123047 C0.91449015 82.48162945 0.90811768 89.45202112 0.90591151 96.42242718 C0.90462502 100.10197037 0.90167392 103.78149266 0.89426994 107.46102905 C0.86605497 122.02669056 0.90486364 136.56832347 1.65988064 151.1190033 C2.16768118 161.05008106 1.87422393 170.94166293 1.5625 180.875 C1.45356978 184.69258539 1.35072302 188.51031494 1.25 192.328125 C1.22519058 193.25013702 1.20038116 194.17214905 1.17481995 195.12210083 C0.9481972 204.02216683 0.95020847 212.91429846 1.12524414 221.81591797 C1.13676514 222.75580566 1.14828613 223.69569336 1.16015625 224.6640625 C1.17699463 225.46279785 1.19383301 226.2615332 1.21118164 227.08447266 C1 229 1 229 -1 231 C-1.02337495 202.50554197 -1.04100176 174.01108538 -1.05181217 145.51661968 C-1.05696536 132.28573473 -1.06398945 119.05485574 -1.07543945 105.82397461 C-1.08541614 94.29005756 -1.09186054 82.75614483 -1.09408849 71.22222358 C-1.09539052 65.11685483 -1.09844428 59.01149844 -1.10573006 52.90613365 C-1.11253735 47.15491854 -1.11460739 41.40372082 -1.11310768 35.65250206 C-1.11338189 33.54628403 -1.115359 31.4400654 -1.11920547 29.33385086 C-1.15470718 8.88432444 -1.15470718 8.88432444 0 0 Z " fill="#7BCAD2" transform="translate(218,497)"/>
<path d="M0 0 C0 9.9 0 19.8 0 30 C-5.28 30 -10.56 30 -16 30 C-17.64412013 16.61216466 -17.64412013 16.61216466 -14.65820312 11.86816406 C-4.77655579 0 -4.77655579 0 0 0 Z " fill="#EEF7FA" transform="translate(551,507)"/>
<path d="M0 0 C0.66 0 1.32 0 2 0 C2.57878906 0.60585938 3.15757812 1.21171875 3.75390625 1.8359375 C9.45168076 7.32561937 18.03463442 9.04371628 25.6875 9.6875 C33.39459215 10.59697438 37.26266414 15.20398186 42 21 C32.26509875 24.1180246 20.11553395 20.78425561 11 17 C6.47055173 14.53525749 2.88037052 12.32055578 0 8 C-0.25760279 5.30547479 -0.08900053 2.71451625 0 0 Z " fill="#F3F9F8" transform="translate(432,501)"/>
<path d="M0 0 C0.41784335 4.17843354 0.31737376 6.45280387 -1.8125 10.125 C-8.18773265 16.87949579 -18.54713411 19.24083931 -27.45703125 20.2890625 C-30.9308549 19.89418854 -32.29598598 18.43712102 -34.8125 16.0625 C-35.60269531 15.33160156 -36.39289063 14.60070312 -37.20703125 13.84765625 C-39 12 -39 12 -39 11 C-38.41621582 10.93006836 -37.83243164 10.86013672 -37.23095703 10.78808594 C-25.59759786 9.35946809 -9.87838022 0 0 0 Z " fill="#F5F9F9" transform="translate(517,457)"/>
<path d="M0 0 C1.66760321 0.32861593 3.33440957 0.66132995 5 1 C5.11667875 4.22886009 5.18740546 7.45717445 5.25 10.6875 C5.30027344 12.05551758 5.30027344 12.05551758 5.3515625 13.45117188 C5.41394998 17.74031146 5.38584414 20.31662715 3.2421875 24.11328125 C0.84370381 26.13151752 -0.0465858 26.64045996 -3.125 26.5 C-5.043125 26.2525 -5.043125 26.2525 -7 26 C-7.66 25.01 -8.32 24.02 -9 23 C-6.04335481 21.5216774 -3.25770263 21.93967217 0 22 C0.66 20.35 1.32 18.7 2 17 C1.34 17.33 0.68 17.66 0 18 C-2.875 18.375 -2.875 18.375 -6 18 C-8.494992 15.8989541 -9.7235205 14.28162462 -10.41796875 11.0625 C-10.70205465 7.00851738 -10.26822542 5.36785201 -7.8125 2 C-4.70605319 -0.20902884 -3.69243845 -0.55386577 0 0 Z " fill="#36A7D5" transform="translate(612,720)"/>
<path d="M0 0 C1.32 0 2.64 0 4 0 C5.00399524 2.62353518 6.00334445 5.24867795 7 7.875 C7.28617188 8.62136719 7.57234375 9.36773438 7.8671875 10.13671875 C10 15.7734375 10 15.7734375 10 18 C10.66 18 11.32 18 12 18 C12.16822266 16.71222656 12.16822266 16.71222656 12.33984375 15.3984375 C13.02648164 11.8636744 14.13294687 8.92396876 15.5625 5.625 C16.01753906 4.56539062 16.47257813 3.50578125 16.94140625 2.4140625 C17.29074219 1.61742187 17.64007812 0.82078125 18 0 C19.32 0 20.64 0 22 0 C22 7.92 22 15.84 22 24 C21.01 24 20.02 24 19 24 C18.67 18.72 18.34 13.44 18 8 C16.02 13.28 14.04 18.56 12 24 C11.01 23.67 10.02 23.34 9 23 C7.95591285 20.62065775 7.10834041 18.3952505 6.3125 15.9375 C5.549375 13.648125 4.78625 11.35875 4 9 C3.67 13.95 3.34 18.9 3 24 C2.01 24 1.02 24 0 24 C0 16.08 0 8.16 0 0 Z " fill="#3DADD4" transform="translate(521,714)"/>
<path d="M0 0 C4.14182881 0.862881 5.56226471 2.18349135 8 5.625 C8.69102379 9.22259808 8.35721288 12.49382588 7.25 16 C5.10993426 18.78208547 2.92981428 19.43426887 -0.4375 20.125 C-3.64465437 19.49921378 -5.11020212 18.06808572 -7.04296875 15.47265625 C-8.87805025 11.92982543 -8.62723067 9.57655322 -8 5.625 C-5.56226471 2.18349135 -4.14182881 0.862881 0 0 Z " fill="#30A8D6" transform="translate(446,719.375)"/>
<path d="M0 0 C2.475 0.495 2.475 0.495 5 1 C6.23264809 3.38007607 7.04420428 5.35095962 7.8125 7.875 C8.02841797 8.51308594 8.24433594 9.15117188 8.46679688 9.80859375 C9.40188875 12.65246048 10 14.98995706 10 18 C10.66 18 11.32 18 12 18 C12.16822266 16.97326172 12.16822266 16.97326172 12.33984375 15.92578125 C13.10771393 12.52261695 14.28413948 9.43256902 15.5625 6.1875 C16.24505859 4.44533203 16.24505859 4.44533203 16.94140625 2.66796875 C17.29074219 1.78753906 17.64007813 0.90710938 18 0 C19.32 0 20.64 0 22 0 C22 7.92 22 15.84 22 24 C21.34 24 20.68 24 20 24 C20 18.06 20 12.12 20 6 C19.34 6 18.68 6 18 6 C17.83564453 6.81791016 17.83564453 6.81791016 17.66796875 7.65234375 C16.48990063 13.25535065 14.912965 18.6054387 13 24 C11.171875 23.94140625 11.171875 23.94140625 9 23 C7.86340997 20.58025965 7.03586088 18.46279686 6.25 15.9375 C5.5075 13.648125 4.765 11.35875 4 9 C3.67 13.95 3.34 18.9 3 24 C2.01 24 1.02 24 0 24 C0 16.08 0 8.16 0 0 Z " fill="#30A8D3" transform="translate(411,714)"/>
<path d="M0 0 C8 0 8 0 10.5 1.375 C12.84235437 5.47412014 12.87046411 9.40333867 12 14 C9.9375 16.625 9.9375 16.625 7 18 C4.69 18 2.38 18 0 18 C0 12.06 0 6.12 0 0 Z " fill="#F0F1F2" transform="translate(338,648)"/>
<path d="M0 0 C3.21731499 0.43969971 5.19499369 0.40806553 8.5 -0.125 C11.625 -0.5 11.625 -0.5 13.30859375 0.49609375 C15.31794375 3.55483722 14.94090745 6.661234 14.8125 10.1875 C14.79219727 11.2403418 14.79219727 11.2403418 14.77148438 12.31445312 C14.73620182 14.04329829 14.68239583 15.77174765 14.625 17.5 C13.635 17.5 12.645 17.5 11.625 17.5 C11.295 12.88 10.965 8.26 10.625 3.5 C8.975 3.5 7.325 3.5 5.625 3.5 C3.74675109 5.37824891 4.23397603 8.53935276 4.0625 11.0625 C3.97871094 12.26003906 3.89492188 13.45757813 3.80859375 14.69140625 C3.74800781 15.61824219 3.68742188 16.54507813 3.625 17.5 C2.635 17.5 1.645 17.5 0.625 17.5 C0.295 12.88 -0.035 8.26 -0.375 3.5 C-2.025 3.83 -3.675 4.16 -5.375 4.5 C-5.705 8.79 -6.035 13.08 -6.375 17.5 C-7.365 17.5 -8.355 17.5 -9.375 17.5 C-9.375 11.89 -9.375 6.28 -9.375 0.5 C-5.35617414 -0.30376517 -3.73217761 -0.59283688 0 0 Z " fill="#3DABD4" transform="translate(649.375,720.5)"/>
<path d="M0 0 C8 0 8 0 10.5 1.5 C12.62336242 5.03893736 12.54688232 7.97295743 12 12 C11.15078005 14.6891965 10.52822835 15.62269404 8.25 17.25 C6 18 6 18 0 18 C0 12.06 0 6.12 0 0 Z " fill="#EFF0F1" transform="translate(733,648)"/>
<path d="M0 0 C2.1796875 1.03515625 2.1796875 1.03515625 4 3 C4.29642569 5.71229503 4.38061189 7.99739732 4.25 10.6875 C4.23195313 11.38939453 4.21390625 12.09128906 4.1953125 12.81445312 C4.14826213 14.54355436 4.07651873 16.27195205 4 18 C2.20991533 18.22151549 0.41781838 18.42682213 -1.375 18.625 C-2.37273438 18.74101563 -3.37046875 18.85703125 -4.3984375 18.9765625 C-5.25695312 18.98429688 -6.11546875 18.99203125 -7 19 C-9 17 -9 17 -9.3125 13.5625 C-9 10 -9 10 -7.9375 8.0625 C-4.98831309 6.44520395 -2.29132441 6.81369862 1 7 C0.67 6.01 0.34 5.02 0 4 C-2.64 3.67 -5.28 3.34 -8 3 C-8 2.34 -8 1.68 -8 1 C-5.19084526 -0.40457737 -3.11189466 -0.24895157 0 0 Z " fill="#32AAD7" transform="translate(594,720)"/>
<path d="M0 0 C0.66 0 1.32 0 2 0 C2 0.66 2 1.32 2 2 C2.99 1.34 3.98 0.68 5 0 C8.75698557 -0.37569856 9.75366476 -0.1642235 13 2 C13.99 1.34 14.98 0.68 16 0 C19.125 0.25 19.125 0.25 22 1 C23.53266582 4.06533164 23.10276471 7.26754272 23.0625 10.625 C23.05798828 11.33140625 23.05347656 12.0378125 23.04882812 12.765625 C23.03703875 14.51045275 23.01910324 16.255237 23 18 C22.34 18 21.68 18 21 18 C20.67 13.05 20.34 8.1 20 3 C18.02 3.66 16.04 4.32 14 5 C13.67 9.29 13.34 13.58 13 18 C12.01 18 11.02 18 10 18 C9.67 13.38 9.34 8.76 9 4 C7.35 4.33 5.7 4.66 4 5 C3.67 9.29 3.34 13.58 3 18 C2.01 18 1.02 18 0 18 C0 12.06 0 6.12 0 0 Z " fill="#39ACD5" transform="translate(332,720)"/>
<path d="M0 0 C2.1796875 1.03515625 2.1796875 1.03515625 4 3 C4.29642569 5.71229503 4.38061189 7.99739732 4.25 10.6875 C4.23195313 11.38939453 4.21390625 12.09128906 4.1953125 12.81445312 C4.14826213 14.54355436 4.07651873 16.27195205 4 18 C2.39884424 18.2493357 0.79379841 18.47378648 -0.8125 18.6875 C-1.70582031 18.81511719 -2.59914063 18.94273437 -3.51953125 19.07421875 C-6 19 -6 19 -7.80078125 17.70703125 C-9.64094864 15.08763988 -9.38867844 13.10942752 -9 10 C-7.9375 8.125 -7.9375 8.125 -6 7 C-2.3125 6.8125 -2.3125 6.8125 1 7 C0.67 6.01 0.34 5.02 0 4 C-2.64 3.67 -5.28 3.34 -8 3 C-8 2.34 -8 1.68 -8 1 C-5.19084526 -0.40457737 -3.11189466 -0.24895157 0 0 Z " fill="#35ACD8" transform="translate(369,720)"/>
<path d="M0 0 C2.1796875 1.03515625 2.1796875 1.03515625 4 3 C4.29642569 5.71229503 4.38061189 7.99739732 4.25 10.6875 C4.23195313 11.38939453 4.21390625 12.09128906 4.1953125 12.81445312 C4.14826213 14.54355436 4.07651873 16.27195205 4 18 C2.39884424 18.2493357 0.79379841 18.47378648 -0.8125 18.6875 C-1.70582031 18.81511719 -2.59914063 18.94273437 -3.51953125 19.07421875 C-6 19 -6 19 -7.796875 17.70703125 C-9.66259336 15.05989188 -9.45800593 13.14061206 -9 10 C-7.375 8.125 -7.375 8.125 -5 7 C-1.75 6.8125 -1.75 6.8125 1 7 C0.67 6.01 0.34 5.02 0 4 C-2.64 3.67 -5.28 3.34 -8 3 C-8 2.34 -8 1.68 -8 1 C-5.19084526 -0.40457737 -3.11189466 -0.24895157 0 0 Z " fill="#39ACDA" transform="translate(557,720)"/>
<path d="M0 0 C3.64443151 0.69786986 4.84639337 1.50626723 6.9375 4.5625 C6.9375 6.5425 6.9375 8.5225 6.9375 10.5625 C2.9775 10.5625 -0.9825 10.5625 -5.0625 10.5625 C-4.0725 12.2125 -3.0825 13.8625 -2.0625 15.5625 C-0.01964939 16.16274521 -0.01964939 16.16274521 2.125 15.875 C3.383125 15.771875 4.64125 15.66875 5.9375 15.5625 C5.6075 16.5525 5.2775 17.5425 4.9375 18.5625 C1.75 19.3125 1.75 19.3125 -2.0625 19.5625 C-4.86439446 17.79608828 -6.57774911 16.53200178 -8.0625 13.5625 C-8.75343988 6.53794454 -8.75343988 6.53794454 -5.9375 2.5625 C-3.0625 0.5625 -3.0625 0.5625 0 0 Z " fill="#33A7D5" transform="translate(629.0625,719.4375)"/>
<path d="M0 0 C2.375 2.1875 2.375 2.1875 4 5 C4 6.65 4 8.3 4 10 C0.04 10 -3.92 10 -8 10 C-7.01 11.65 -6.02 13.3 -5 15 C-2.95714939 15.60024521 -2.95714939 15.60024521 -0.8125 15.3125 C0.445625 15.209375 1.70375 15.10625 3 15 C2 18 2 18 0 19 C-2.8125 19.4375 -2.8125 19.4375 -6 19 C-9.64241774 15.75349723 -10.82073764 14.27724434 -11.5 9.4375 C-10.97728874 5.84386009 -10.19241377 3.86700262 -8 1 C-5.12529507 -0.43735246 -3.18105412 -0.38172649 0 0 Z " fill="#33A6D1" transform="translate(487,720)"/>
<path d="M0 0 C8 0 8 0 9.9765625 1.1875 C11.32232501 3.57083513 11.39937162 5.27037835 11.375 8 C11.38273438 8.86625 11.39046875 9.7325 11.3984375 10.625 C11 13 11 13 9.9765625 14.75 C8 16 8 16 0 17 C0 11.39 0 5.78 0 0 Z " fill="#F8F9FA" transform="translate(556,649)"/>
<path d="M0 0 C3.3125 0.9375 3.3125 0.9375 5.3125 2.9375 C5.4375 6.5625 5.4375 6.5625 5.3125 9.9375 C1.6825 9.9375 -1.9475 9.9375 -5.6875 9.9375 C-5.3575 11.5875 -5.0275 13.2375 -4.6875 14.9375 C-1.7175 14.9375 1.2525 14.9375 4.3125 14.9375 C4.3125 15.9275 4.3125 16.9175 4.3125 17.9375 C1.386584 19.400458 -0.44367347 19.38273109 -3.6875 18.9375 C-6.62939213 16.37933293 -8.25822451 14.71345423 -9.171875 10.93359375 C-9.43367889 7.10107568 -8.75697338 5.04065744 -6.625 1.875 C-3.6875 -0.0625 -3.6875 -0.0625 0 0 Z " fill="#3EADD6" transform="translate(676.6875,720.0625)"/>
<path d="M0 0 C0.99 0.33 1.98 0.66 3 1 C3 1.99 3 2.98 3 4 C0.03 4 -2.94 4 -6 4 C-6.33 5.32 -6.66 6.64 -7 8 C-6.06027344 8.50660156 -6.06027344 8.50660156 -5.1015625 9.0234375 C-4.28429687 9.46945312 -3.46703125 9.91546875 -2.625 10.375 C-1.81289063 10.81585937 -1.00078125 11.25671875 -0.1640625 11.7109375 C2 13 2 13 4 15 C4.31537716 19.33643601 4.44897847 21.32653229 2 25 C-1.52994613 26.17664871 -4.29455413 26.19850603 -8 26 C-8.99 25.34 -9.98 24.68 -11 24 C-11 23.01 -11 22.02 -11 21 C-10.01 21.33 -9.02 21.66 -8 22 C-3.345203 22.3053818 -3.345203 22.3053818 1 21 C0.89111661 18.56406741 0.89111661 18.56406741 0 16 C-2.26332377 14.56806714 -2.26332377 14.56806714 -5 13.625 C-9.83422224 11.42951512 -9.83422224 11.42951512 -11.375 7.4375 C-11 4 -11 4 -9.5 1.5625 C-6.15600147 -0.52749908 -3.87846466 -0.3525877 0 0 Z " fill="#2AA9D8" transform="translate(323,713)"/>
<path d="M0 0 C4.27201855 1.70041033 7.26281092 4.77945366 10.5625 7.875 C11.13935547 8.40480469 11.71621094 8.93460937 12.31054688 9.48046875 C15.1801441 12.14816813 17.78703816 14.73962206 20 18 C13.19354371 17.43279531 8.15938974 15.18726982 2.5625 11.3125 C0.19209617 7.80430234 0.17757715 4.15530534 0 0 Z " fill="#EEF6F4" transform="translate(432,483)"/>
<path d="M0 0 C2.15803024 3.15072415 1.67982052 6.50981671 1.5546875 10.18359375 C1.54115234 10.93318359 1.52761719 11.68277344 1.51367188 12.45507812 C1.47837289 14.30239142 1.42456667 16.14933441 1.3671875 17.99609375 C0.3771875 17.99609375 -0.6128125 17.99609375 -1.6328125 17.99609375 C-1.9628125 13.04609375 -2.2928125 8.09609375 -2.6328125 2.99609375 C-4.2828125 2.99609375 -5.9328125 2.99609375 -7.6328125 2.99609375 C-9.51106141 4.87434266 -9.02383647 8.03544651 -9.1953125 10.55859375 C-9.32099609 12.35490234 -9.32099609 12.35490234 -9.44921875 14.1875 C-9.50980469 15.11433594 -9.57039063 16.04117188 -9.6328125 16.99609375 C-10.6228125 16.99609375 -11.6128125 16.99609375 -12.6328125 16.99609375 C-12.6328125 11.38609375 -12.6328125 5.77609375 -12.6328125 -0.00390625 C-2.69913903 -1.65951849 -2.69913903 -1.65951849 0 0 Z " fill="#3CADD5" transform="translate(470.6328125,721.00390625)"/>
<path d="M0 0 C-2.73589735 5.71584189 -5.46107803 10.95722847 -11.5 13.4375 C-15.45527492 12.94309064 -15.93735854 12.44501603 -18.4375 9.5625 C-19.31480794 8.39199254 -20.17679837 7.20917163 -21 6 C-20.04738281 5.73445313 -19.09476562 5.46890625 -18.11328125 5.1953125 C-16.85902344 4.84210938 -15.60476563 4.48890625 -14.3125 4.125 C-13.07113281 3.77695312 -11.82976562 3.42890625 -10.55078125 3.0703125 C-7.08715589 2.08283961 -7.08715589 2.08283961 -4.16796875 0.8671875 C-2 0 -2 0 0 0 Z " fill="#31A8D4" transform="translate(510,471)"/>
<path d="M0 0 C1.32 0 2.64 0 4 0 C4.50559908 1.43554025 5.0042749 2.8735202 5.5 4.3125 C5.7784375 5.11300781 6.056875 5.91351562 6.34375 6.73828125 C7 9 7 9 7 12 C7.66 12 8.32 12 9 12 C9.13277344 11.38511719 9.26554687 10.77023437 9.40234375 10.13671875 C9.66724609 8.92435547 9.66724609 8.92435547 9.9375 7.6875 C10.11152344 6.88699219 10.28554688 6.08648438 10.46484375 5.26171875 C11 3 11 3 12 0 C12.99 0 13.98 0 15 0 C13.38267004 8.50987633 11.32589794 18.67410206 5 25 C3.68 25 2.36 25 1 25 C1 24.01 1 23.02 1 22 C2.32 21.34 3.64 20.68 5 20 C4.52432875 12.74601342 2.70533406 6.73187777 0 0 Z " fill="#36A7D0" transform="translate(493,721)"/>
<path d="M0 0 C2.4375 0.8125 2.4375 0.8125 4.4375 2.8125 C4.99177252 9.79633372 4.99177252 9.79633372 3.3125 12.875 C0.446698 14.307901 -1.55798152 13.66160305 -4.5625 12.8125 C-6.1548093 9.62788141 -5.95155037 6.27858511 -5.5625 2.8125 C-3.92391781 -0.03345855 -3.27337134 -0.23951498 0 0 Z " fill="#EEF9FB" transform="translate(446.5625,722.1875)"/>
<path d="M0 0 C1.32 0 2.64 0 4 0 C4 1.32 4 2.64 4 4 C4.99 4 5.98 4 7 4 C7 4.99 7 5.98 7 7 C6.01 7 5.02 7 4 7 C4 11.29 4 15.58 4 20 C5.32 20 6.64 20 8 20 C7.67 20.99 7.34 21.98 7 23 C2.25 22.25 2.25 22.25 0 20 C-0.1953125 16.9609375 -0.1953125 16.9609375 -0.125 13.375 C-0.10695313 12.18648437 -0.08890625 10.99796875 -0.0703125 9.7734375 C-0.04710937 8.85820313 -0.02390625 7.94296875 0 7 C-0.99 6.67 -1.98 6.34 -3 6 C-3 5.34 -3 4.68 -3 4 C-2.01 4 -1.02 4 0 4 C0 2.68 0 1.36 0 0 Z " fill="#66C2E2" transform="translate(391,716)"/>
<path d="M0 0 C2.49118953 3.7367843 2.2065226 5.74451819 2.125 10.1875 C2.10695313 11.45980469 2.08890625 12.73210938 2.0703125 14.04296875 C2.03550781 15.50669922 2.03550781 15.50669922 2 17 C1.01 17 0.02 17 -1 17 C-1.33 12.38 -1.66 7.76 -2 3 C-3.65 3 -5.3 3 -7 3 C-9.68092691 5.68092691 -9.38670257 7.39167363 -9.625 11.125 C-9.69976563 12.22070312 -9.77453125 13.31640625 -9.8515625 14.4453125 C-9.90054688 15.28835938 -9.94953125 16.13140625 -10 17 C-10.66 17 -11.32 17 -12 17 C-12 11.39 -12 5.78 -12 0 C-4.55172414 -1.24137931 -4.55172414 -1.24137931 0 0 Z " fill="#43B0D6" transform="translate(699,721)"/>
<path d="M0 0 C2.0926659 3.01607722 1.67922994 6.12494519 1.55078125 9.65234375 C1.53724609 10.35423828 1.52371094 11.05613281 1.50976562 11.77929688 C1.47448307 13.50814204 1.42067708 15.2365914 1.36328125 16.96484375 C0.37328125 16.96484375 -0.61671875 16.96484375 -1.63671875 16.96484375 C-1.96671875 12.34484375 -2.29671875 7.72484375 -2.63671875 2.96484375 C-4.28671875 2.96484375 -5.93671875 2.96484375 -7.63671875 2.96484375 C-9.51496766 4.84309266 -9.02774272 8.00419651 -9.19921875 10.52734375 C-9.32490234 12.32365234 -9.32490234 12.32365234 -9.453125 14.15625 C-9.51371094 15.08308594 -9.57429687 16.00992188 -9.63671875 16.96484375 C-10.29671875 16.96484375 -10.95671875 16.96484375 -11.63671875 16.96484375 C-11.63671875 11.35484375 -11.63671875 5.74484375 -11.63671875 -0.03515625 C-2.83798022 -1.79490396 -2.83798022 -1.79490396 0 0 Z " fill="#43AED4" transform="translate(578.63671875,721.03515625)"/>
<path d="M0 0 C0.99 0 1.98 0 3 0 C3.33 3.3 3.66 6.6 4 10 C2.68 10.33 1.36 10.66 0 11 C-0.33 10.01 -0.66 9.02 -1 8 C-2.258125 8.226875 -3.51625 8.45375 -4.8125 8.6875 C-8.7152962 9.17793988 -8.7152962 9.17793988 -11 7.75 C-12 6 -12 6 -12 3 C-8.04 3 -4.08 3 0 3 C0 2.01 0 1.02 0 0 Z " fill="#E9F8FC" transform="translate(636,727)"/>
<path d="M0 0 C2.5 0.25 2.5 0.25 4.5 2.25 C5.06140351 9.32368421 5.06140351 9.32368421 3.25 12.3125 C1.5 13.25 1.5 13.25 -0.5625 13.0625 C-2.5 12.25 -2.5 12.25 -4.5 10.25 C-4.765625 8.375 -4.765625 8.375 -4.75 6.25 C-4.75515625 5.54875 -4.7603125 4.8475 -4.765625 4.125 C-4.31971142 0.97737476 -3.03899237 0.30389924 0 0 Z " fill="#F5FBFC" transform="translate(609.5,722.75)"/>
<path d="M0 0 C0.33 0 0.66 0 1 0 C-0.3803205 13.25107676 -7.50256461 24.62830566 -17.6015625 33.2109375 C-20.0450004 35.17257074 -22.50640056 37.10269608 -25 39 C-25.66 38.67 -26.32 38.34 -27 38 C-26.2265625 37.33355469 -25.453125 36.66710937 -24.65625 35.98046875 C-12.76495586 25.54759504 -5.85995053 14.59493928 0 0 Z M-8 22 C-6 23 -6 23 -6 23 Z " fill="#85D4C1" transform="translate(798,734)"/>
<path d="M0 0 C-0.33 5.61 -0.66 11.22 -1 17 C-1.33 17 -1.66 17 -2 17 C-2.33 12.38 -2.66 7.76 -3 3 C-4.65 3.33 -6.3 3.66 -8 4 C-8.33 8.29 -8.66 12.58 -9 17 C-9.99 17 -10.98 17 -12 17 C-12 11.39 -12 5.78 -12 0 C-7 -1 -7 -1 0 0 Z " fill="#3AABD3" transform="translate(652,721)"/>
<path d="M0 0 C0.99 0 1.98 0 3 0 C3 1.65 3 3.3 3 5 C4.32 5 5.64 5 7 5 C7 5.66 7 6.32 7 7 C5.68 7 4.36 7 3 7 C3.33 10.96 3.66 14.92 4 19 C4.99 19.33 5.98 19.66 7 20 C7 20.66 7 21.32 7 22 C4.625 22.125 4.625 22.125 2 22 C0 20 0 20 -0.1953125 16.9609375 C-0.16050781 15.18589844 -0.16050781 15.18589844 -0.125 13.375 C-0.10695313 12.18648437 -0.08890625 10.99796875 -0.0703125 9.7734375 C-0.04710937 8.85820313 -0.02390625 7.94296875 0 7 C-0.99 7 -1.98 7 -3 7 C-3 6.01 -3 5.02 -3 4 C-2.01 4 -1.02 4 0 4 C0 2.68 0 1.36 0 0 Z " fill="#1FA3D4" transform="translate(706,716)"/>
<path d="M0 0 C2.65718074 2.65718074 2.5939467 4.55791513 3.125 8.25 C3.29257812 9.36890625 3.46015625 10.4878125 3.6328125 11.640625 C3.97753524 14.79447131 4.06722438 17.83085084 4 21 C2.02 21 0.04 21 -2 21 C-2.28100502 13.83437211 -1.20443195 7.05453001 0 0 Z " fill="#ECEDEE" transform="translate(597,656)"/>
<path d="M0 0 C0 0.99 0 1.98 0 3 C-1.65 3.66 -3.3 4.32 -5 5 C-5.33 9.29 -5.66 13.58 -6 18 C-6.99 18 -7.98 18 -9 18 C-9 12.39 -9 6.78 -9 1 C-4 0 -4 0 0 0 Z " fill="#2FAAD6" transform="translate(387,720)"/>
<path d="M0 0 C0.7425 1.0828125 0.7425 1.0828125 1.5 2.1875 C4.59992786 5.67491884 8.01074542 7.66542596 12 10 C12.99 10.66 13.98 11.32 15 12 C14.34 12 13.68 12 13 12 C13.33 13.65 13.66 15.3 14 17 C9.06945173 14.28316728 4.53715638 11.33342102 0 8 C0.33 7.34 0.66 6.68 1 6 C0.71887936 3.99199544 0.38932033 1.98985949 0 0 Z " fill="#38A8D0" transform="translate(432,425)"/>
<path d="M0 0 C1.32 0.33 2.64 0.66 4 1 C3.34 1.66 2.68 2.32 2 3 C1.70793189 5.18289315 1.70793189 5.18289315 1.77294922 7.72509766 C1.77317581 9.19639633 1.77317581 9.19639633 1.77340698 10.69741821 C1.78372955 11.75891083 1.79405212 12.82040344 1.8046875 13.9140625 C1.8075174 14.99883881 1.81034729 16.08361511 1.81326294 17.20126343 C1.82448422 20.67595313 1.84959238 24.15038782 1.875 27.625 C1.88502728 29.97655879 1.89415357 32.3281216 1.90234375 34.6796875 C1.92442989 40.45321244 1.95792655 46.22658801 2 52 C3.32 52.66 4.64 53.32 6 54 C4.02 54 2.04 54 0 54 C0 36.18 0 18.36 0 0 Z " fill="#3B3D3C" transform="translate(366,642)"/>
<path d="M0 0 C0.33 0 0.66 0 1 0 C0.91291331 1.45945288 0.80473093 2.91765868 0.6875 4.375 C0.62949219 5.18710937 0.57148437 5.99921875 0.51171875 6.8359375 C0 9 0 9 -3 11 C-6.6875 10.625 -6.6875 10.625 -10 10 C-10.33 8.35 -10.66 6.7 -11 5 C-7.37 5 -3.74 5 0 5 C0 3.35 0 1.7 0 0 Z " fill="#E4F6F9" transform="translate(682,725)"/>
<path d="M0 0 C2.1796875 1.03515625 2.1796875 1.03515625 4 3 C4.29642569 5.71229503 4.38061189 7.99739732 4.25 10.6875 C4.23195313 11.38939453 4.21390625 12.09128906 4.1953125 12.81445312 C4.14826213 14.54355436 4.07651873 16.27195205 4 18 C3.67 18 3.34 18 3 18 C3 14.7 3 11.4 3 8 C0.03 8 -2.94 8 -6 8 C-6 7.67 -6 7.34 -6 7 C-3.69 7 -1.38 7 1 7 C0.67 6.01 0.34 5.02 0 4 C-2.64 3.67 -5.28 3.34 -8 3 C-8 2.34 -8 1.68 -8 1 C-5.19084526 -0.40457737 -3.11189466 -0.24895157 0 0 Z " fill="#4BB2D9" transform="translate(594,720)"/>
<path d="M0 0 C0.99 0.66 1.98 1.32 3 2 C3.29296875 4.8203125 3.29296875 4.8203125 3.1875 8.125 C3.16042969 9.22070312 3.13335938 10.31640625 3.10546875 11.4453125 C3.07066406 12.28835938 3.03585937 13.13140625 3 14 C2.73445312 13.35546875 2.46890625 12.7109375 2.1953125 12.046875 C1.60363281 11.03367187 1.60363281 11.03367187 1 10 C-2.05908413 9.18415432 -2.05908413 9.18415432 -5 9 C-5 8.34 -5 7.68 -5 7 C-3.02 7 -1.04 7 1 7 C0.67 6.01 0.34 5.02 0 4 C-2.64 3.67 -5.28 3.34 -8 3 C-8 2.34 -8 1.68 -8 1 C-5.22899606 -0.38550197 -3.0665294 -0.1877467 0 0 Z " fill="#30A7D7" transform="translate(557,720)"/>
<path d="M0 0 C1.32 0 2.64 0 4 0 C4 7.92 4 15.84 4 24 C3.34 24 2.68 24 2 24 C2 17.73 2 11.46 2 5 C1.34 5 0.68 5 0 5 C0 3.35 0 1.7 0 0 Z " fill="#199BCF" transform="translate(429,714)"/>
<path d="M0 0 C1.32 0 2.64 0 4 0 C4 7.92 4 15.84 4 24 C3.34 24 2.68 24 2 24 C2 17.07 2 10.14 2 3 C1.34 3 0.68 3 0 3 C0 2.01 0 1.02 0 0 Z " fill="#1E9ED0" transform="translate(539,714)"/>
<path d="M0 0 C0.66 0 1.32 0 2 0 C2 0.66 2 1.32 2 2 C2.66 2 3.32 2 4 2 C3.67 6.95 3.34 11.9 3 17 C2.01 17 1.02 17 0 17 C0 11.39 0 5.78 0 0 Z " fill="#28A9D5" transform="translate(458,721)"/>
<path d="M0 0 C0.33 0 0.66 0 1 0 C1.12375 0.763125 1.2475 1.52625 1.375 2.3125 C1.88102792 5.20267136 1.88102792 5.20267136 4 8 C4 8.66 4 9.32 4 10 C6.97 10 9.94 10 13 10 C13 10.99 13 11.98 13 13 C10.074084 14.462958 8.24382653 14.44523109 5 14 C1.99084245 11.38334126 0.25437241 9.7967064 -0.30859375 5.8203125 C-0.3125 3.625 -0.3125 3.625 0 0 Z " fill="#34AED9" transform="translate(668,725)"/>
<path d="M0 0 C0.33 0 0.66 0 1 0 C1 1.98 1 3.96 1 6 C1.9590625 6.4640625 1.9590625 6.4640625 2.9375 6.9375 C5 8 5 8 6 9 C8.67058851 9.14115161 11.32432238 9.04247107 14 9 C13 12 13 12 11 13 C8.1875 13.4375 8.1875 13.4375 5 13 C1.1709034 9.58710955 0.10330755 8.28101364 -0.3125 3.125 C-0.209375 2.09375 -0.10625 1.0625 0 0 Z " fill="#42B2D8" transform="translate(476,726)"/>
<path d="M0 0 C0.763125 0.20625 1.52625 0.4125 2.3125 0.625 C1.4375 5.5 1.4375 5.5 0.3125 6.625 C-1.35367115 6.66563832 -3.02138095 6.667721 -4.6875 6.625 C-5.0175 4.975 -5.3475 3.325 -5.6875 1.625 C-2.6875 -0.375 -2.6875 -0.375 0 0 Z " fill="#EBFAFB" transform="translate(592.6875,729.375)"/>
<path d="M0 0 C0.763125 0.20625 1.52625 0.4125 2.3125 0.625 C1.4375 5.5 1.4375 5.5 0.3125 6.625 C-1.35367115 6.66563832 -3.02138095 6.667721 -4.6875 6.625 C-5.0175 4.975 -5.3475 3.325 -5.6875 1.625 C-2.6875 -0.375 -2.6875 -0.375 0 0 Z " fill="#E9F5F9" transform="translate(367.6875,729.375)"/>
<path d="M0 0 C2.625 0.375 2.625 0.375 5 1 C5.33 2.65 5.66 4.3 6 6 C3.03 6 0.06 6 -3 6 C-2 2 -2 2 0 0 Z " fill="#DDF0F6" transform="translate(627,722)"/>
<path d="M0 0 C2.625 0.375 2.625 0.375 5 1 C5.33 2.65 5.66 4.3 6 6 C3.03 6 0.06 6 -3 6 C-2 2 -2 2 0 0 Z " fill="#E5F2F6" transform="translate(482,722)"/>
<path d="M0 0 C0.66 0 1.32 0 2 0 C3.31690141 6.34507042 3.31690141 6.34507042 2.0625 8.9375 C-1.38295476 10.71243124 -4.15342604 10.36634038 -8 10 C-8.66 9.01 -9.32 8.02 -10 7 C-7.04335481 5.5216774 -4.25770263 5.93967217 -1 6 C-0.29733387 3.02425724 -0.29733387 3.02425724 0 0 Z " fill="#3AABDD" transform="translate(613,736)"/>
<path d="M0 0 C0.66 0 1.32 0 2 0 C2.33 3.96 2.66 7.92 3 12 C4.32 12.33 5.64 12.66 7 13 C6.67 13.99 6.34 14.98 6 16 C1.125 15.125 1.125 15.125 0 14 C-0.07271741 11.64686445 -0.08370868 9.29166332 -0.0625 6.9375 C-0.05347656 5.64714844 -0.04445313 4.35679687 -0.03515625 3.02734375 C-0.02355469 2.02832031 -0.01195312 1.02929688 0 0 Z " fill="#23A9D6" transform="translate(392,723)"/>
<path d="M0 0 C2.64 0 5.28 0 8 0 C7.19175781 0.52078125 6.38351562 1.0415625 5.55078125 1.578125 C2.28552722 4.67836619 2.32025631 6.32478967 2.1875 10.75 C2.13980469 11.92046875 2.09210937 13.0909375 2.04296875 14.296875 C2.02878906 15.18890625 2.01460937 16.0809375 2 17 C1.34 17 0.68 17 0 17 C0 11.39 0 5.78 0 0 Z " fill="#1C9DCD" transform="translate(567,721)"/>
<path d="M0 0 C0.99 0.33 1.98 0.66 3 1 C3 1.99 3 2.98 3 4 C2.07767578 3.98259766 2.07767578 3.98259766 1.13671875 3.96484375 C-0.07564453 3.95130859 -0.07564453 3.95130859 -1.3125 3.9375 C-2.11300781 3.92589844 -2.91351563 3.91429687 -3.73828125 3.90234375 C-6.16861334 3.90342145 -6.16861334 3.90342145 -9 5 C-10.20882096 7.00016466 -10.20882096 7.00016466 -11 9 C-11.35430394 5.81126451 -11.25953249 4.38410809 -9.4375 1.6875 C-6.14189944 -0.59406962 -3.93045581 -0.35731416 0 0 Z " fill="#42ADD7" transform="translate(323,713)"/>
<path d="M0 0 C0.33 0 0.66 0 1 0 C1 4.95 1 9.9 1 15 C-2.3 15.33 -5.6 15.66 -9 16 C-9 15.34 -9 14.68 -9 14 C-8.236875 13.7525 -7.47375 13.505 -6.6875 13.25 C-3.58855984 11.80863248 -2.58574563 11.01291669 -1 8 C-0.4712116 5.32012092 -0.22762708 2.73152498 0 0 Z " fill="#39AFDD" transform="translate(372,723)"/>
<path d="M0 0 C0.99 0.33 1.98 0.66 3 1 C4.89470816 1.0685495 6.7916834 1.08480372 8.6875 1.0625 C9.68136719 1.05347656 10.67523438 1.04445313 11.69921875 1.03515625 C12.45847656 1.02355469 13.21773438 1.01195312 14 1 C13.67 1.99 13.34 2.98 13 4 C9.47005387 5.17664871 6.70544587 5.19850603 3 5 C2.01 4.34 1.02 3.68 0 3 C0 2.01 0 1.02 0 0 Z " fill="#39B3E2" transform="translate(312,734)"/>
<path d="M0 0 C2.93453261 0.36681658 3.86437246 0.86437246 6 3 C6 3.99 6 4.98 6 6 C3.03 6 0.06 6 -3 6 C-2 2 -2 2 0 0 Z " fill="#EAF5F8" transform="translate(674,722)"/>
<path d="M0 0 C0.66 0.33 1.32 0.66 2 1 C-0.97 3.64 -3.94 6.28 -7 9 C-7.33 8.34 -7.66 7.68 -8 7 C-8.93972656 7.55880859 -8.93972656 7.55880859 -9.8984375 8.12890625 C-10.71570313 8.60199219 -11.53296875 9.07507813 -12.375 9.5625 C-13.59316406 10.27599609 -13.59316406 10.27599609 -14.8359375 11.00390625 C-15.55007813 11.33261719 -16.26421875 11.66132813 -17 12 C-17.66 11.67 -18.32 11.34 -19 11 C-15.88258808 9.13284182 -12.7549542 7.28354339 -9.625 5.4375 C-8.73554687 4.90447266 -7.84609375 4.37144531 -6.9296875 3.82226562 C-6.07890625 3.32275391 -5.228125 2.82324219 -4.3515625 2.30859375 C-3.56604004 1.84251709 -2.78051758 1.37644043 -1.97119141 0.89624023 C-1.32069824 0.60048096 -0.67020508 0.30472168 0 0 Z " fill="#B8DA5B" transform="translate(727,281)"/>
<path d="M0 0 C1.4540625 0.0309375 1.4540625 0.0309375 2.9375 0.0625 C2.980221 1.72861905 2.97813832 3.39632885 2.9375 5.0625 C1.9375 6.0625 1.9375 6.0625 -1.125 6.125 C-2.5790625 6.0940625 -2.5790625 6.0940625 -4.0625 6.0625 C-4.105221 4.39638095 -4.10313832 2.72867115 -4.0625 1.0625 C-3.0625 0.0625 -3.0625 0.0625 0 0 Z " fill="#F3FAFC" transform="translate(555.0625,729.9375)"/>
<path d="M0 0 C-0.33 5.61 -0.66 11.22 -1 17 C-1.33 17 -1.66 17 -2 17 C-2.33 12.38 -2.66 7.76 -3 3 C-5.31 2.67 -7.62 2.34 -10 2 C-7.68727395 -2.62545211 -5.37672638 -0.76810377 0 0 Z " fill="#6ABEDE" transform="translate(652,721)"/>
<path d="M0 0 C0.66 0 1.32 0 2 0 C2 0.66 2 1.32 2 2 C2.66 2 3.32 2 4 2 C3.67 2.99 3.34 3.98 3 5 C2.77674186 7.05893621 2.59294241 9.12233653 2.4375 11.1875 C2.35371094 12.27417969 2.26992188 13.36085938 2.18359375 14.48046875 C2.12300781 15.31191406 2.06242188 16.14335938 2 17 C1.34 17 0.68 17 0 17 C0 11.39 0 5.78 0 0 Z " fill="#1AA1CE" transform="translate(687,721)"/>
<path d="M0 0 C0 0.99 0 1.98 0 3 C-1.65503364 4.35104787 -3.31158672 5.70028606 -4.9765625 7.0390625 C-8.80046421 10.74485141 -11.32546893 15.43134815 -14 20 C-14.33 19.01 -14.66 18.02 -15 17 C-11.17037779 10.22369625 -6.12918257 4.72457823 0 0 Z " fill="#99D590" transform="translate(243,267)"/>
<path d="M0 0 C0.66 0.33 1.32 0.66 2 1 C2 2.65 2 4.3 2 6 C-4.435 6.495 -4.435 6.495 -11 7 C-11 5.02 -11 3.04 -11 1 C-10.67 1.99 -10.34 2.98 -10 4 C-6.7 4 -3.4 4 0 4 C0 2.68 0 1.36 0 0 Z " fill="#20A3D7" transform="translate(680,724)"/>
<path d="M0 0 C5.40431223 4.58547704 8.97262981 10.63500118 12 17 C11.67 17.66 11.34 18.32 11 19 C10.54109375 18.27554687 10.0821875 17.55109375 9.609375 16.8046875 C8.99578125 15.83789062 8.3821875 14.87109375 7.75 13.875 C7.11449219 12.87339844 6.47898437 11.87179687 5.82421875 10.83984375 C4.4359087 8.67859877 3.02200404 6.55035603 1.5625 4.4375 C0 2 0 2 0 0 Z " fill="#B0D85F" transform="translate(789,276)"/>
<path d="M0 0 C0.66 0 1.32 0 2 0 C2.08121924 1.60332791 2.13929134 3.20784026 2.1875 4.8125 C2.22230469 5.70582031 2.25710938 6.59914063 2.29296875 7.51953125 C2 10 2 10 -1 13 C-1.33 9.37 -1.66 5.74 -2 2 C-1.34 2 -0.68 2 0 2 C0 1.34 0 0.68 0 0 Z " fill="#29A3D4" transform="translate(615,721)"/>
<path d="M0 0 C1.32 0.33 2.64 0.66 4 1 C4 5.95 4 10.9 4 16 C3.34 16 2.68 16 2 16 C1.93941406 15.09636719 1.87882812 14.19273437 1.81640625 13.26171875 C1.73261719 12.08222656 1.64882813 10.90273438 1.5625 9.6875 C1.48128906 8.51574219 1.40007812 7.34398437 1.31640625 6.13671875 C1.1132629 2.97409042 1.1132629 2.97409042 0 0 Z " fill="#239FCF" transform="translate(351,722)"/>
<path d="M0 0 C1.98 0.99 1.98 0.99 4 2 C3.67 2.33 3.34 2.66 3 3 C2.76518307 5.18292774 2.58636677 7.37203174 2.4375 9.5625 C2.31181641 11.35880859 2.31181641 11.35880859 2.18359375 13.19140625 C2.12300781 14.11824219 2.06242188 15.04507813 2 16 C1.34 16 0.68 16 0 16 C0 10.72 0 5.44 0 0 Z " fill="#24A2CF" transform="translate(651,722)"/>
<path d="M0 0 C0.33 0 0.66 0 1 0 C0.43215818 5.4512815 -0.82454091 9.95293491 -3 15 C-3.99 15.495 -3.99 15.495 -5 16 C-4.39363767 10.23955788 -2.24341721 5.27985631 0 0 Z " fill="#83CEB8" transform="translate(798,734)"/>
<path d="M0 0 C0.33 0.99 0.66 1.98 1 3 C1.66 3 2.32 3 3 3 C3.33 2.01 3.66 1.02 4 0 C4 2.97 4 5.94 4 9 C2.68 8.67 1.36 8.34 0 8 C-0.98120464 4.94736336 -0.98120464 3.05263664 0 0 Z " fill="#3AB1DB" transform="translate(420,729)"/>
<path d="M0 0 C0.66 0 1.32 0 2 0 C2 0.66 2 1.32 2 2 C3.918125 1.938125 3.918125 1.938125 5.875 1.875 C8.0546875 1.8046875 8.0546875 1.8046875 10 2 C10.66 2.66 11.32 3.32 12 4 C8.7 4 5.4 4 2 4 C2 4.66 2 5.32 2 6 C1.34 6 0.68 6 0 6 C0 4.02 0 2.04 0 0 Z " fill="#22A3D3" transform="translate(477,726)"/>
<path d="M0 0 C0.33 0 0.66 0 1 0 C1 6.6 1 13.2 1 20 C0.67 20 0.34 20 0 20 C0 15.71 0 11.42 0 7 C-0.99 7 -1.98 7 -3 7 C-3 6.01 -3 5.02 -3 4 C-2.01 4 -1.02 4 0 4 C0 2.68 0 1.36 0 0 Z " fill="#5FBFE0" transform="translate(706,716)"/>
<path d="M0 0 C2.01822917 0.06510417 4.03645833 0.13020833 6.0546875 0.1953125 C6.0546875 0.5253125 6.0546875 0.8553125 6.0546875 1.1953125 C3.7446875 1.8553125 1.4346875 2.5153125 -0.9453125 3.1953125 C-0.9453125 4.8453125 -0.9453125 6.4953125 -0.9453125 8.1953125 C-1.9353125 8.5253125 -2.9253125 8.8553125 -3.9453125 9.1953125 C-4.0703125 5.8203125 -4.0703125 5.8203125 -3.9453125 2.1953125 C-1.9453125 0.1953125 -1.9453125 0.1953125 0 0 Z " fill="#1CA4D5" transform="translate(588.9453125,727.8046875)"/>
<path d="M0 0 C0.99 0.99 1.98 1.98 3 3 C-0.63 3 -4.26 3 -8 3 C-8 2.34 -8 1.68 -8 1 C-5.20129973 -0.39935013 -3.09501208 -0.25265405 0 0 Z " fill="#41ACD8" transform="translate(369,720)"/>
<path d="M0 0 C1.125 1.75 1.125 1.75 2 4 C1.4375 6.1875 1.4375 6.1875 0 8 C-2.625 8.75 -2.625 8.75 -5 9 C-5 8.01 -5 7.02 -5 6 C-4.360625 5.7525 -3.72125 5.505 -3.0625 5.25 C-0.81258459 4.18437567 -0.81258459 4.18437567 -0.25 1.875 C-0.1675 1.25625 -0.085 0.6375 0 0 Z " fill="#43B0DB" transform="translate(499,737)"/>
<path d="M0 0 C2.72869407 0.03287583 5.2966618 0.56397771 8 1 C8 1.33 8 1.66 8 2 C6.576875 2.12375 6.576875 2.12375 5.125 2.25 C1.90165132 2.63752715 1.90165132 2.63752715 0.75 5 C0.5025 5.66 0.255 6.32 0 7 C-0.99 7.495 -0.99 7.495 -2 8 C-2.125 5.125 -2.125 5.125 -2 2 C-1.34 1.34 -0.68 0.68 0 0 Z " fill="#49B2DA" transform="translate(550,728)"/>
<path d="M0 0 C0.99 0.33 1.98 0.66 3 1 C3 1.66 3 2.32 3 3 C-0.51073727 4.17024576 -2.41123848 3.67289278 -6 3 C-6.99 3 -7.98 3 -9 3 C-5.92667401 0.26815467 -4.10000422 -0.42051325 0 0 Z " fill="#49ADD5" transform="translate(612,720)"/>
<path d="M0 0 C0.598125 0.763125 1.19625 1.52625 1.8125 2.3125 C3.46959332 4.3483575 5.10297674 6.1978279 7 8 C6.34 8 5.68 8 5 8 C5 8.66 5 9.32 5 10 C2.525 9.01 2.525 9.01 0 8 C0.33 7.34 0.66 6.68 1 6 C0.71887936 3.99199544 0.38932033 1.98985949 0 0 Z " fill="#3DAFD7" transform="translate(432,425)"/>
<path d="M0 0 C0.33 0 0.66 0 1 0 C1.33 3.96 1.66 7.92 2 12 C2.99 12.33 3.98 12.66 5 13 C5 13.66 5 14.32 5 15 C3.35 15 1.7 15 0 15 C-1.47193312 12.05613377 -0.84936173 9.62609964 -0.5625 6.375 C-0.46066406 5.18648437 -0.35882812 3.99796875 -0.25390625 2.7734375 C-0.17011719 1.85820313 -0.08632813 0.94296875 0 0 Z " fill="#2EABD7" transform="translate(708,723)"/>
<path d="M0 0 C0.33 0 0.66 0 1 0 C1 3.3 1 6.6 1 10 C-0.32 10.33 -1.64 10.66 -3 11 C-2.69078116 9.54096742 -2.37751201 8.08279278 -2.0625 6.625 C-1.88847656 5.81289063 -1.71445312 5.00078125 -1.53515625 4.1640625 C-1 2 -1 2 0 0 Z " fill="#E8F4F8" transform="translate(539,720)"/>
<path d="M0 0 C-0.33 0.99 -0.66 1.98 -1 3 C-3.31 3.33 -5.62 3.66 -8 4 C-8 3.01 -8 2.02 -8 1 C-5.23735711 0.40267181 -2.83967231 0 0 0 Z " fill="#40B0DA" transform="translate(635,735)"/>
<path d="M0 0 C0.66 0 1.32 0 2 0 C2.33 2.31 2.66 4.62 3 7 C0.03 7 -2.94 7 -6 7 C-6 6.67 -6 6.34 -6 6 C-4.02 6 -2.04 6 0 6 C0 4.02 0 2.04 0 0 Z " fill="#717171" transform="translate(574,690)"/>
<path d="M0 0 C0.99 0.66 1.98 1.32 3 2 C3.1875 5.625 3.1875 5.625 3 9 C2.01 8.67 1.02 8.34 0 8 C-0.2165625 6.824375 -0.2165625 6.824375 -0.4375 5.625 C-0.87798925 3.03578982 -0.87798925 3.03578982 -2 1 C-1.34 0.67 -0.68 0.34 0 0 Z " fill="#1C9ED6" transform="translate(324,726)"/>
<path d="M0 0 C0 0.66 0 1.32 0 2 C-0.9590625 2.433125 -0.9590625 2.433125 -1.9375 2.875 C-4.15206079 3.82823451 -4.15206079 3.82823451 -5 6 C-5.66 6 -6.32 6 -7 6 C-6.625 3.5625 -6.625 3.5625 -6 1 C-4 0 -4 0 0 0 Z " fill="#D6ECF4" transform="translate(594,729)"/>
<path d="M0 0 C0.99 0 1.98 0 3 0 C3 3.63 3 7.26 3 11 C1.68 9.35 0.36 7.7 -1 6 C-0.01 5.67 0.98 5.34 2 5 C1.34 3.35 0.68 1.7 0 0 Z " fill="#199ED7" transform="translate(369,723)"/>
<path d="M0 0 C0.66 0 1.32 0 2 0 C0.68775452 3.93673644 -0.91910327 6.22719294 -4 9 C-3.4739075 5.21213403 -2.61896089 2.82847776 0 0 Z " fill="#90D08D" transform="translate(237,279)"/>
<path d="M0 0 C3.4375 0.25 3.4375 0.25 7 1 C7.66 1.99 8.32 2.98 9 4 C7.72125 4.061875 6.4425 4.12375 5.125 4.1875 C4.40570312 4.22230469 3.68640625 4.25710938 2.9453125 4.29296875 C2.30335938 4.19628906 1.66140625 4.09960938 1 4 C0.34 3.01 -0.32 2.02 -1 1 C-0.67 0.67 -0.34 0.34 0 0 Z " fill="#62BDE1" transform="translate(604,742)"/>
<path d="M0 0 C0.99 0.33 1.98 0.66 3 1 C3 1.66 3 2.32 3 3 C2.34 3 1.68 3 1 3 C0.67 4.98 0.34 6.96 0 9 C-1.125 7.3125 -1.125 7.3125 -2 5 C-1.125 2.25 -1.125 2.25 0 0 Z " fill="#39A7D2" transform="translate(538,716)"/>
<path d="M0 0 C0.93065133 2.60582371 1.14917407 3.64198224 0.0625 6.25 C-0.4634375 7.11625 -0.4634375 7.11625 -1 8 C-2.0625 6.1875 -2.0625 6.1875 -3 4 C-2.67 3.01 -2.34 2.02 -2 1 C-1.34 1.33 -0.68 1.66 0 2 C0 1.34 0 0.68 0 0 Z " fill="#1DA1D3" transform="translate(502,733)"/>
<path d="M0 0 C0 0.99 0 1.98 0 3 C-4.75 4.125 -4.75 4.125 -7 3 C-5.26536375 -0.4692725 -3.90371498 0 0 0 Z " fill="#3DA8D8" transform="translate(387,720)"/>
<path d="M0 0 C0 0.99 0 1.98 0 3 C-2.70879335 4.35439668 -5.00933268 4.06501451 -8 4 C-6 1 -6 1 -4 0.3125 C-2 0 -2 0 0 0 Z " fill="#5ABADD" transform="translate(681,735)"/>
<path d="M0 0 C3.96 0 7.92 0 12 0 C12 0.33 12 0.66 12 1 C8.7 1.66 5.4 2.32 2 3 C1.34 2.01 0.68 1.02 0 0 Z " fill="#39A5D3" transform="translate(468,459)"/>
</svg>
